<svg xmlns="http://www.w3.org/2000/svg" width="47.642" height="42" viewBox="0 0 47.642 42">
  <g id="Group_3946" data-name="Group 3946" transform="translate(-140 -832)">
    <circle id="Ellipse_65" data-name="Ellipse 65" cx="19.5" cy="19.5" r="19.5" transform="translate(140 832)" fill="#c3edf3"/>
    <path id="Path_12106" data-name="Path 12106" d="M427.265,47.55a1.565,1.565,0,1,1,1.565-1.566A1.566,1.566,0,0,1,427.265,47.55Zm1.565,7.8a1.565,1.565,0,1,0-1.565,1.566A1.565,1.565,0,0,0,428.83,55.346Zm0,9.362a1.565,1.565,0,1,0-1.565,1.565A1.565,1.565,0,0,0,428.83,64.708Zm0,9.362a1.565,1.565,0,1,0-1.565,1.565A1.565,1.565,0,0,0,428.83,74.069Zm0,9.361A1.565,1.565,0,1,0,427.265,85,1.565,1.565,0,0,0,428.83,83.43Zm-9.362-37.446A1.565,1.565,0,1,0,417.9,47.55,1.565,1.565,0,0,0,419.468,45.984Zm0,9.362a1.565,1.565,0,1,0-1.565,1.566A1.565,1.565,0,0,0,419.468,55.346Zm0,9.362a1.565,1.565,0,1,0-1.565,1.565A1.565,1.565,0,0,0,419.468,64.708Zm0,9.362a1.565,1.565,0,1,0-1.565,1.565A1.565,1.565,0,0,0,419.468,74.069Zm0,9.361A1.565,1.565,0,1,0,417.9,85,1.565,1.565,0,0,0,419.468,83.43Zm-9.361-37.446a1.565,1.565,0,1,0-1.566,1.566A1.565,1.565,0,0,0,410.107,45.984Zm0,9.362a1.565,1.565,0,1,0-1.566,1.566A1.565,1.565,0,0,0,410.107,55.346Zm0,9.362a1.565,1.565,0,1,0-1.566,1.565A1.565,1.565,0,0,0,410.107,64.708Zm0,9.362a1.565,1.565,0,1,0-1.566,1.565A1.565,1.565,0,0,0,410.107,74.069Zm0,9.361A1.565,1.565,0,1,0,408.541,85,1.565,1.565,0,0,0,410.107,83.43Z" transform="translate(-241.188 789.004)" fill="#00bbd8"/>
  </g>
</svg>
