<svg xmlns="http://www.w3.org/2000/svg" id="chat-bubble_1_" width="31.206" height="31.205" viewBox="0 0 31.206 31.205">
    <defs>
        <style>
            .cls-1{fill:#707070}
        </style>
    </defs>
    <g id="Group_2886">
        <path id="Path_12157" d="M1.9 30.408a1.111 1.111 0 0 1-1.066-1.4l1.4-5.236a.192.192 0 0 0-.019-.148A15.584 15.584 0 0 1 0 15.77a15.309 15.309 0 0 1 1.19-6.1 15.862 15.862 0 0 1 8.326-8.414A15.3 15.3 0 0 1 15.6 0a15.584 15.584 0 0 1 12.7 6.526.456.456 0 0 1-.742.531A14.735 14.735 0 0 0 15.6.912 14.692 14.692 0 0 0 3 23.157a1.11 1.11 0 0 1 .118.854l-1.4 5.236c-.021.176.066.262.241.241l5.237-1.4a1.11 1.11 0 0 1 .854.118c.253.152.514.3.774.434a.456.456 0 0 1-.422.809c-.277-.144-.553-.3-.822-.461a.193.193 0 0 0-.148-.019l-5.236 1.4a1.124 1.124 0 0 1-.292.039z" class="cls-1"/>
    </g>
    <g id="Group_2892" transform="translate(6.224 4.031)">
        <g id="Group_2887" transform="translate(0 2.453)">
            <path id="Path_12158" d="M113.93 124.983a7.843 7.843 0 0 1-5.559-2.291l-3.954-3.954a7.768 7.768 0 0 1-1.837-2.9.456.456 0 1 1 .859-.307 6.862 6.862 0 0 0 1.623 2.56l3.954 3.954a6.963 6.963 0 0 0 9.452.339 8.186 8.186 0 0 0 1.118-1.008.769.769 0 0 0 0-1.088l-2.762-2.762a.768.768 0 0 0-1.087 0l-1.508 1.508a1.588 1.588 0 0 0-.462 1.22l.02.321a.588.588 0 0 1-.7.609 4.112 4.112 0 0 1-2.087-1.122l-3.954-3.954a4.112 4.112 0 0 1-1.124-2.089.588.588 0 0 1 .609-.7l.321.02a1.588 1.588 0 0 0 1.22-.462l1.508-1.508a.768.768 0 0 0 0-1.086l-2.762-2.762a.769.769 0 0 0-1.087 0 8.2 8.2 0 0 0-1.009 1.12 6.892 6.892 0 0 0-1.671 5.071.456.456 0 0 1-.91.069 7.8 7.8 0 0 1 1.873-5.717 8.14 8.14 0 0 1 .987-1.1 1.7 1.7 0 0 1 2.461-.084l2.762 2.762a1.681 1.681 0 0 1 0 2.377l-1.508 1.508a2.5 2.5 0 0 1-1.767.732h-.018a3.2 3.2 0 0 0 .76 1.209l3.954 3.954a3.2 3.2 0 0 0 1.209.76 2.5 2.5 0 0 1 .732-1.786l1.508-1.508a1.681 1.681 0 0 1 2.377 0l2.762 2.762a1.681 1.681 0 0 1 0 2.377 8.847 8.847 0 0 1-1.187 1.071 7.82 7.82 0 0 1-5.116 1.885z" class="cls-1" transform="translate(-102.12 -106.388)"/>
        </g>
        <g id="Group_2890" transform="translate(7.006)">
            <g id="Group_2888" transform="translate(0 2.101)">
                <path id="Path_12159" d="M218.989 102.981a.456.456 0 0 1-.456-.446 1.036 1.036 0 0 0-1.013-1.013.456.456 0 0 1 .01-.912h.011a1.949 1.949 0 0 1 1.9 1.9.456.456 0 0 1-.446.466z" class="cls-1" transform="translate(-217.074 -100.61)"/>
            </g>
            <g id="Group_2889" transform="translate(.257)">
                <path id="Path_12160" d="M225.056 70.352a.456.456 0 0 1-.454-.419 3.149 3.149 0 0 0-2.884-2.884.456.456 0 1 1 .073-.909 4.062 4.062 0 0 1 3.72 3.72.456.456 0 0 1-.418.491z" class="cls-1" transform="translate(-221.298 -66.138)"/>
            </g>
        </g>
        <g id="Group_2891" transform="translate(3.736 3.93)">
            <path id="Path_12161" d="M169.062 153.861h-.162a15.546 15.546 0 0 1-5.176-.939.456.456 0 1 1 .312-.857 14.637 14.637 0 0 0 4.873.883h.155A14.7 14.7 0 0 0 182 131.289a.456.456 0 1 1 .8-.433 15.627 15.627 0 0 1 1.864 7.409 15.3 15.3 0 0 1-1.256 6.08 15.862 15.862 0 0 1-8.418 8.325 15.309 15.309 0 0 1-5.928 1.191z" class="cls-1" transform="translate(-163.422 -130.616)"/>
        </g>
    </g>
</svg>
