<svg xmlns="http://www.w3.org/2000/svg" width="29.313" height="31.283" viewBox="0 0 29.313 31.283"><g transform="translate(-515.61 -557.403)"><path d="M99.276,64.477a14.3,14.3,0,1,0,14.3,14.3A14.315,14.315,0,0,0,99.276,64.477Zm.715,27.131V88.069h-1.43v3.538A12.865,12.865,0,0,1,86.443,79.49h3.538V78.06H86.443A12.865,12.865,0,0,1,98.561,65.943v3.538h1.43V65.943A12.865,12.865,0,0,1,112.108,78.06H108.57v1.43h3.538A12.864,12.864,0,0,1,99.991,91.607Zm0,0" transform="translate(430.633 492.926)" fill="#7b7b7b"/><path d="M223.677,142v-5.524h-1.35V142a2.02,2.02,0,1,0,2.576,2.576h2.824v-1.35H224.9A2.021,2.021,0,0,0,223.677,142ZM223,144.576a.675.675,0,1,1,.675-.675A.676.676,0,0,1,223,144.576Zm0,0" transform="translate(307.109 429.599)" fill="#7b7b7b"/></g></svg>
