<svg xmlns="http://www.w3.org/2000/svg" width="23.768" height="35.211" viewBox="0 0 23.768 35.211">
    <path fill="#7b7b7b" d="M80.2 10.893V7.886A7.9 7.9 0 0 1 88.086 0h3.668a7.9 7.9 0 0 1 7.886 7.886v5.5a.587.587 0 0 1-1.174 0v-5.5a6.72 6.72 0 0 0-6.712-6.712h-3.668a6.72 6.72 0 0 0-6.712 6.712v3.008a.587.587 0 0 1-1.174 0zM95.71 25.1a2.438 2.438 0 0 1-2.1-1.177.587.587 0 0 0-1 .61 3.6 3.6 0 0 0 3.1 1.741 4.881 4.881 0 0 1 4.884 4.883v3.467a.587.587 0 0 0 1.174 0v-3.466A6.054 6.054 0 0 0 95.71 25.1zm-2.957 1.712a4.452 4.452 0 0 1-6.7-1.135 3.607 3.607 0 0 0 1.618-2.735 7.845 7.845 0 0 0 10.062-7.485v-4.094a.586.586 0 0 0-.365-.538 5.284 5.284 0 0 1-3.491-3.121.587.587 0 0 0-1.012-.139A14.324 14.324 0 0 1 82.01 13.2a.587.587 0 1 0 .047 1.173 15.5 15.5 0 0 0 11.151-5.367 6.386 6.386 0 0 0 3.351 2.794v3.618a6.676 6.676 0 0 1-13.288.92.587.587 0 0 0-1.163.16 7.849 7.849 0 0 0 4.4 6.006v.154a2.447 2.447 0 0 1-2.452 2.442A6.053 6.053 0 0 0 78 31.158v3.467a.587.587 0 0 0 1.174 0v-3.467a4.881 4.881 0 0 1 4.884-4.883 3.654 3.654 0 0 0 .917-.117 5.626 5.626 0 0 0 8.534 1.553.587.587 0 0 0-.756-.9z" transform="translate(-77.999)"/>
</svg>
