<svg xmlns="http://www.w3.org/2000/svg" width="46.443" height="46.443" viewBox="0 0 46.443 46.443"><path d="M36.919,46.443H9.525A9.535,9.535,0,0,1,0,36.919V9.525A9.535,9.535,0,0,1,9.525,0H36.919a9.535,9.535,0,0,1,9.525,9.525V36.919A9.535,9.535,0,0,1,36.919,46.443Z" fill="#87e694"/><path d="M269.7,0H256V46.443h13.7a9.535,9.535,0,0,0,9.525-9.525V9.525A9.535,9.535,0,0,0,269.7,0Z" transform="translate(-232.778)" fill="#66cc70"/><path d="M111.93,170.514h-.907l-7.438-3.628v5.9a1.361,1.361,0,0,1-1.361,1.361H84.082a1.361,1.361,0,0,1-1.361-1.361V162.8H80v-2.721h2.721v-2.721A1.361,1.361,0,0,1,84.082,156h18.142a1.361,1.361,0,0,1,1.361,1.361v5.9l7.438-3.628h.907Z" transform="translate(-72.743 -141.849)" fill="#fff"/><path d="M271.058,159.628l-7.438,3.628v-5.9A1.361,1.361,0,0,0,262.259,156H256v18.142h6.259a1.361,1.361,0,0,0,1.361-1.361v-5.9l7.438,3.628h.907V159.628Z" transform="translate(-232.778 -141.849)" fill="#f2f2f2"/></svg>