<svg xmlns="http://www.w3.org/2000/svg" width="46" height="46" viewBox="0 0 46 46"><path d="M43.125,0H23.8C11.328,0,.9,9.371.057,21.335A23,23,0,0,0,23.027,46c.543,0,1.09-.017,1.639-.058C36.627,45.1,46,34.673,46,22.2V2.876A2.878,2.878,0,0,0,43.125,0Z" transform="translate(0 -0.001)" fill="#2196f3"/><path d="M153.846,172.939a1.434,1.434,0,0,1-2.079,1.285L148.1,172.39v3.424a1.438,1.438,0,0,1-1.438,1.438H129.408a1.438,1.438,0,0,1-1.438-1.438V161.439A1.438,1.438,0,0,1,129.408,160h17.251a1.438,1.438,0,0,1,1.438,1.438v3.424l3.669-1.834a1.44,1.44,0,0,1,2.082,1.285Z" transform="translate(-116.472 -145.625)" fill="#eceff1"/></svg>