<svg xmlns="http://www.w3.org/2000/svg" width="46" height="45.996" viewBox="0 0 46 45.996"><path d="M44.667,27.879C48,12.912,34.887-.684,19.489,1.926,11.13-3.261,0,2.6,0,12.546a12.37,12.37,0,0,0,1.748,6.345c-3.095,15,10.124,28.4,25.508,25.613a12.83,12.83,0,0,0,6.015,1.489A12.559,12.559,0,0,0,44.667,27.879ZM23.18,38.1c-4.488,0-8.873-1.083-11.467-4.789-3.867-5.469,1.232-8.206,3.735-6.121,2.089,1.761,1.433,6.021,7.568,6.021,2.7,0,6.042-1.154,6.042-3.835,0-5.394-11.967-2.842-16.726-8.723a7.216,7.216,0,0,1,.069-8.71c3.741-4.814,14.717-5.107,19.437-1.472,4.358,3.373,3.181,7.849-.335,7.849-4.229,0-2.006-5.534-8.834-5.534-4.95,0-6.9,3.52-3.411,5.233,4.639,2.3,16.768,1.585,16.768,10.737C36.009,35.188,29.8,38.1,23.18,38.1Z" transform="translate(0 0.002)" fill="#03a9f4"/></svg>