<svg xmlns="http://www.w3.org/2000/svg" width="46.367" height="46.367" viewBox="0 0 46.367 46.367"><path d="M23.189,0h-.012A23.169,23.169,0,0,0,4.414,36.772L1.524,45.385l8.911-2.849A23.18,23.18,0,1,0,23.189,0Z" fill="#4caf50"/><path d="M134.229,139.223c-.559,1.579-2.779,2.889-4.55,3.272-1.211.258-2.794.464-8.12-1.745-6.813-2.823-11.2-9.746-11.543-10.195s-2.753-3.666-2.753-6.993a7.4,7.4,0,0,1,2.371-5.642,3.368,3.368,0,0,1,2.371-.832c.287,0,.545.014.777.026.681.029,1.023.07,1.472,1.145.559,1.348,1.921,4.674,2.084,5.016a1.38,1.38,0,0,1,.1,1.255,4.006,4.006,0,0,1-.751,1.064c-.342.394-.667.7-1.008,1.119-.313.368-.667.762-.272,1.443a20.578,20.578,0,0,0,3.762,4.674,17.044,17.044,0,0,0,5.437,3.353,1.466,1.466,0,0,0,1.634-.258,28.047,28.047,0,0,0,1.811-2.4,1.294,1.294,0,0,1,1.663-.5c.626.217,3.938,1.855,4.619,2.194s1.13.5,1.3.791A5.774,5.774,0,0,1,134.229,139.223Z" transform="translate(-97.55 -106.484)" fill="#fafafa"/></svg>