<svg id="portable-document-format" xmlns="http://www.w3.org/2000/svg" width="17.641" height="19.244" viewBox="0 0 17.641 19.244">
  <path id="Path_12149" data-name="Path 12149" d="M17.627,20.037H8a2.007,2.007,0,0,1-2-2V6A2.007,2.007,0,0,1,8,4h9.622a2.007,2.007,0,0,1,2,2V18.032A2.007,2.007,0,0,1,17.627,20.037ZM8,4.8A1.2,1.2,0,0,0,6.8,6V18.032a1.2,1.2,0,0,0,1.2,1.2h9.622a1.2,1.2,0,0,0,1.2-1.2V6a1.2,1.2,0,0,0-1.2-1.2Z" transform="translate(-1.991 -0.793)" fill="#7b7b7b"/>
  <path id="Path_12150" data-name="Path 12150" d="M3.806,16.839H3a2.007,2.007,0,0,1-2-2V2A2.007,2.007,0,0,1,3,0h9.622a2.007,2.007,0,0,1,2,2,.4.4,0,0,1-.8,0,1.2,1.2,0,0,0-1.2-1.2H3A1.2,1.2,0,0,0,1.8,2v12.83a1.2,1.2,0,0,0,1.2,1.2h.8a.4.4,0,1,1,0,.8Z" transform="translate(-1)" fill="#7b7b7b"/>
  <path id="Path_12151" data-name="Path 12151" d="M16.816,16.8H10.4a.4.4,0,1,1,0-.8h6.415a.4.4,0,0,1,0,.8Z" transform="translate(-2.783 -3.17)" fill="#7b7b7b"/>
  <path id="Path_12152" data-name="Path 12152" d="M16.816,20.8H10.4a.4.4,0,1,1,0-.8h6.415a.4.4,0,0,1,0,.8Z" transform="translate(-2.783 -3.963)" fill="#7b7b7b"/>
  <path id="Path_12153" data-name="Path 12153" d="M16.816,12.8H10.4a.4.4,0,1,1,0-.8h6.415a.4.4,0,0,1,0,.8Z" transform="translate(-2.783 -2.378)" fill="#7b7b7b"/>
  <path id="Path_12154" data-name="Path 12154" d="M16.816,8.8H10.4a.4.4,0,0,1,0-.8h6.415a.4.4,0,0,1,0,.8Z" transform="translate(-2.783 -1.585)" fill="#7b7b7b"/>
</svg>
