<svg xmlns="http://www.w3.org/2000/svg" width="16.634" height="20.615" viewBox="0 0 16.634 20.615">
    <defs>
        <style>
            .cls-1{fill:#7b7b7b;stroke:#fff;stroke-width:.5px}
        </style>
    </defs>
    <g id="pin" transform="translate(.25 .25)">
        <g id="Group_2928" data-name="Group 2928">
            <path id="Path_12187" d="M55.263 0A8.074 8.074 0 0 0 47.2 8.063a7.936 7.936 0 0 0 .143 1.514c0 .03.021.118.055.27a7.941 7.941 0 0 0 .54 1.59 22.6 22.6 0 0 0 6.971 8.552.571.571 0 0 0 .717 0 22.646 22.646 0 0 0 6.974-8.552 7.851 7.851 0 0 0 .54-1.59c.034-.152.051-.24.055-.27a8.292 8.292 0 0 0 .143-1.514A8.086 8.086 0 0 0 55.263 0zm6.8 9.379v.025c0 .008-.017.084-.038.181v.008a6.7 6.7 0 0 1-.468 1.375s0 .013-.008.017a21.094 21.094 0 0 1-6.279 7.827 21.094 21.094 0 0 1-6.279-7.827s0-.013-.008-.017a7.141 7.141 0 0 1-.468-1.375v-.008c-.025-.1-.034-.16-.038-.181s0-.017 0-.03a6.924 6.924 0 1 1 13.6 0z" class="cls-1" data-name="Path 12187" transform="translate(-47.2)"/>
            <path id="Path_12188" d="M122.119 71.9a5.119 5.119 0 1 0 5.119 5.119 5.127 5.127 0 0 0-5.119-5.119zm0 9.1a3.981 3.981 0 1 1 3.981-3.981A3.986 3.986 0 0 1 122.119 81z" class="cls-1" data-name="Path 12188" transform="translate(-114.057 -68.868)"/>
        </g>
    </g>
</svg>
