<svg xmlns="http://www.w3.org/2000/svg" id="arrow" width="59.657" height="59.657" viewBox="0 0 59.657 59.657">
    <defs>
        <style>
            .cls-1{fill:#7b7b7b}
        </style>
    </defs>
    <g id="Group_4000">
        <g id="Group_3999">
            <path id="Path_12780" d="M49.7 1.344a1.721 1.721 0 0 0-1.721 1.721v3.092A29.831 29.831 0 0 0 0 29.828 29.633 29.633 0 0 0 8.737 50.92a1.721 1.721 0 0 0 2.434-2.434A26.391 26.391 0 0 1 45 8.233h-2.18a1.721 1.721 0 0 0 0 3.442h6.88c.055 0 .109 0 .163-.008.048 0 .095-.012.141-.02h.025c.045-.009.09-.02.134-.033l.037-.014c.043-.013.085-.028.126-.044l.033-.012c.041-.017.08-.036.119-.055l.034-.016c.041-.022.08-.046.119-.071l.026-.015a1.73 1.73 0 0 0 .485-.485l.016-.026c.025-.039.049-.078.07-.119l.016-.034c.02-.039.039-.078.055-.119 0-.011.008-.022.012-.033.016-.041.031-.083.044-.126 0-.009 0-.019.007-.028.012-.044.024-.089.033-.135v-.022a1.722 1.722 0 0 0 .029-.308V3.065A1.721 1.721 0 0 0 49.7 1.344z" class="cls-1"/>
        </g>
    </g>
    <g id="Group_4002" transform="translate(11.038 22.21)">
        <g id="Group_4001">
            <path id="Path_12781" d="M103.462 198.235a3.929 3.929 0 0 0-1.35-7.618h-5.656a1.721 1.721 0 0 0 0 3.442h5.655a.487.487 0 0 1 .118.959l-3.755.939a2.348 2.348 0 0 0 0 4.557l3.755.939a.487.487 0 0 1-.118.959h-5.655a1.721 1.721 0 1 0 0 3.442h5.655a3.929 3.929 0 0 0 1.35-7.618z" class="cls-1" transform="translate(-94.735 -190.617)"/>
        </g>
    </g>
    <g id="Group_4004" transform="translate(24.176 22.21)">
        <g id="Group_4003">
            <path id="Path_12782" d="M214.122 196.515h-3.194v-1.228a1.229 1.229 0 0 1 1.228-1.228h4.914a1.721 1.721 0 1 0 0-3.442h-4.914a4.675 4.675 0 0 0-4.67 4.67v5.9a4.675 4.675 0 0 0 4.67 4.67h1.966a4.67 4.67 0 1 0 0-9.339zm0 5.9h-1.966a1.229 1.229 0 0 1-1.228-1.228v-1.228h3.194a1.228 1.228 0 1 1 0 2.456z" class="cls-1" transform="translate(-207.487 -190.618)"/>
        </g>
    </g>
    <g id="Group_4006" transform="translate(37.314 22.21)">
        <g id="Group_4005">
            <path id="Path_12783" d="M326.877 190.617h-1.966a4.675 4.675 0 0 0-4.669 4.67v5.9a4.675 4.675 0 0 0 4.669 4.67h1.966a4.675 4.675 0 0 0 4.67-4.67v-5.9a4.675 4.675 0 0 0-4.67-4.67zm1.228 10.567a1.229 1.229 0 0 1-1.228 1.228h-1.966a1.229 1.229 0 0 1-1.228-1.228v-5.9a1.229 1.229 0 0 1 1.228-1.228h1.966a1.229 1.229 0 0 1 1.228 1.228z" class="cls-1" transform="translate(-320.242 -190.617)"/>
        </g>
    </g>
    <g id="Group_4008" transform="translate(27.402 56.206)">
        <g id="Group_4007">
            <path id="Path_12784" d="M238.282 482.385c-.443.011-.9.011-1.34 0a1.721 1.721 0 1 0-.086 3.441c.247.006.5.009.748.009s.512 0 .765-.01a1.721 1.721 0 1 0-.087-3.441z" class="cls-1" transform="translate(-235.178 -482.385)"/>
        </g>
    </g>
    <g id="Group_4010" transform="translate(55.065 20.126)">
        <g id="Group_4009">
            <path id="Path_12785" d="M476.359 175.428c-.117-.488-.249-.979-.391-1.461a1.721 1.721 0 1 0-3.3.976c.126.425.242.86.346 1.291a1.721 1.721 0 1 0 3.346-.806z" class="cls-1" transform="translate(-472.596 -172.734)"/>
        </g>
    </g>
    <g id="Group_4012" transform="translate(13.44 52.089)">
        <g id="Group_4011">
            <path id="Path_12786" d="M119.126 447.975c-.39-.213-.779-.438-1.157-.67a1.721 1.721 0 0 0-1.8 2.934c.428.262.868.517 1.31.758a1.721 1.721 0 0 0 1.647-3.022z" class="cls-1" transform="translate(-115.347 -447.052)"/>
        </g>
    </g>
    <g id="Group_4014" transform="translate(20.148 55.072)">
        <g id="Group_4013">
            <path id="Path_12787" d="M176.42 473.066c-.432-.1-.867-.22-1.292-.345a1.721 1.721 0 0 0-.973 3.3c.481.142.973.273 1.462.39a1.721 1.721 0 1 0 .8-3.347z" class="cls-1" transform="translate(-172.92 -472.65)"/>
        </g>
    </g>
    <g id="Group_4016" transform="translate(52.078 13.421)">
        <g id="Group_4015">
            <path id="Path_12788" d="M450.9 117.317c-.24-.44-.5-.88-.758-1.308a1.721 1.721 0 0 0-2.933 1.8c.232.379.458.768.671 1.157a1.721 1.721 0 0 0 3.021-1.65z" class="cls-1" transform="translate(-446.954 -115.188)"/>
        </g>
    </g>
    <g id="Group_4018" transform="translate(34.702 55.068)">
        <g id="Group_4017">
            <path id="Path_12789" d="M302.576 473.856a1.721 1.721 0 0 0-2.137-1.163c-.427.126-.861.242-1.291.345a1.721 1.721 0 1 0 .8 3.346c.487-.117.978-.248 1.461-.391a1.721 1.721 0 0 0 1.167-2.137z" class="cls-1" transform="translate(-297.828 -472.622)"/>
        </g>
    </g>
    <g id="Group_4020" transform="translate(55.075 34.678)">
        <g id="Group_4019">
            <path id="Path_12790" d="M475.169 297.669a1.721 1.721 0 0 0-2.074 1.273c-.1.431-.219.866-.344 1.291a1.721 1.721 0 1 0 3.3.972c.142-.481.273-.973.39-1.461a1.721 1.721 0 0 0-1.272-2.075z" class="cls-1" transform="translate(-472.679 -297.621)"/>
        </g>
    </g>
    <g id="Group_4022" transform="translate(52.095 41.53)">
        <g id="Group_4021">
            <path id="Path_12791" d="M450.36 356.639a1.721 1.721 0 0 0-2.334.688c-.212.39-.438.78-.67 1.159a1.721 1.721 0 1 0 2.935 1.8c.263-.429.517-.87.757-1.31a1.721 1.721 0 0 0-.688-2.337z" class="cls-1" transform="translate(-447.102 -356.429)"/>
        </g>
    </g>
    <g id="Group_4024" transform="translate(47.479 47.465)">
        <g id="Group_4023">
            <path id="Path_12792" d="M411.4 407.843a1.721 1.721 0 0 0-2.433.062c-.306.322-.624.64-.946.946a1.721 1.721 0 0 0 2.372 2.493c.363-.346.723-.705 1.068-1.069a1.721 1.721 0 0 0-.061-2.432z" class="cls-1" transform="translate(-407.488 -407.37)"/>
        </g>
    </g>
    <g id="Group_4026" transform="translate(56.206 27.379)">
        <g id="Group_4025">
            <path id="Path_12793" d="M485.823 236.654a1.721 1.721 0 0 0-1.72-1.677h-.045a1.721 1.721 0 0 0-1.677 1.764c.006.227.009.457.009.685s0 .438-.008.654a1.721 1.721 0 0 0 1.679 1.762h.043a1.721 1.721 0 0 0 1.72-1.679c.006-.244.009-.492.009-.738s-.003-.515-.01-.771z" class="cls-1" transform="translate(-482.382 -234.977)"/>
        </g>
    </g>
    <g id="Group_4028" transform="translate(41.551 52.084)">
        <g id="Group_4027">
            <path id="Path_12794" d="M361.025 447.832a1.721 1.721 0 0 0-2.367-.567c-.378.232-.766.457-1.156.669a1.721 1.721 0 1 0 1.649 3.021c.44-.24.88-.495 1.307-.757a1.721 1.721 0 0 0 .567-2.366z" class="cls-1" transform="translate(-356.606 -447.011)"/>
        </g>
    </g>
</svg>
