<svg xmlns="http://www.w3.org/2000/svg" width="50.244" height="34.499" viewBox="0 0 50.244 34.499">
  <g id="Bath_icon" data-name="Bath icon" transform="translate(0.5 0.5)">
    <path id="Path" d="M33.816,0H0C.234,6.19,5.4,13.978,11.745,13.978H32.152C38.5,13.978,43.664,6.19,43.9,0H33.816" transform="translate(2.562 15.834)" fill="none" stroke="#7b7b7b" stroke-linecap="round" stroke-linejoin="round" stroke-miterlimit="10" stroke-width="1"/>
    <path id="Path-2" data-name="Path" d="M0,.062H2.884" transform="translate(0 15.772)" fill="none" stroke="#7b7b7b" stroke-linecap="round" stroke-linejoin="round" stroke-miterlimit="10" stroke-width="1"/>
    <path id="Path-3" data-name="Path" d="M0,.062H2.884" transform="translate(46.36 15.772)" fill="none" stroke="#7b7b7b" stroke-linecap="round" stroke-linejoin="round" stroke-miterlimit="10" stroke-width="1"/>
    <path id="Path-4" data-name="Path" d="M1.313,0,0,3.135" transform="translate(11.766 30.21)" fill="none" stroke="#7b7b7b" stroke-linecap="round" stroke-linejoin="round" stroke-miterlimit="10" stroke-width="1"/>
    <path id="Path-5" data-name="Path" d="M0,0,1.313,3.135" transform="translate(36.388 30.21)" fill="none" stroke="#7b7b7b" stroke-linecap="round" stroke-linejoin="round" stroke-miterlimit="10" stroke-width="1"/>
    <path id="Path-6" data-name="Path" d="M7.1,5.678V3.494A3.522,3.522,0,0,0,3.549,0,3.522,3.522,0,0,0,0,3.494V15.943" transform="translate(2.44)" fill="none" stroke="#7b7b7b" stroke-linecap="round" stroke-linejoin="round" stroke-miterlimit="10" stroke-width="1"/>
    <rect id="Rectangle" width="7.32" height="8.081" transform="translate(28.837 15.725)" fill="none" stroke="#7b7b7b" stroke-linecap="round" stroke-linejoin="round" stroke-miterlimit="10" stroke-width="1"/>
    <path id="Path-7" data-name="Path" d="M0,.062H6.876" transform="translate(29.058 19.703)" fill="none" stroke="#7b7b7b" stroke-linecap="round" stroke-linejoin="round" stroke-miterlimit="10" stroke-width="1"/>
    <path id="Path-8" data-name="Path" d="M0,.062H5.1" transform="translate(7.098 5.835)" fill="none" stroke="#7b7b7b" stroke-linecap="round" stroke-linejoin="round" stroke-miterlimit="10" stroke-width="1"/>
  </g>
</svg>
