<svg xmlns="http://www.w3.org/2000/svg" width="32.074" height="32.074" viewBox="0 0 32.074 32.074">
  <g id="Group_Copy_24" data-name="Group Copy 24" transform="translate(0.5 17.5)">
    <g id="Group_Copy_19" data-name="Group Copy 19" transform="translate(0 -17)">
      <g id="Group_Copy_5" data-name="Group Copy 5">
        <g id="Group_Copy_3" data-name="Group Copy 3">
          <g id="Group_Copy_2" data-name="Group Copy 2">
            <ellipse id="Oval-Copy-33" cx="15.537" cy="15.537" rx="15.537" ry="15.537" fill="#fff" stroke="#908f91" stroke-miterlimit="10" stroke-width="1"/>
            <g id="Group-2_3_Copy" data-name="Group-2 3 Copy" transform="translate(0.444 6.274)">
              <path id="_Path_" d="M30.659,1.273H.473" transform="translate(-0.473 5.036)" fill="none" stroke="#908f91" stroke-linecap="round" stroke-miterlimit="10" stroke-width="1"/>
              <path id="_Path_2" d="M3.278,6.126V1.978A1.956,1.956,0,0,0,2.843.618,1.671,1.671,0,0,0,1.641,0a1.671,1.671,0,0,0-1.2.618A1.956,1.956,0,0,0,0,1.978V15.046" transform="translate(10.003 0)" fill="none" stroke="#908f91" stroke-linecap="round" stroke-miterlimit="10" stroke-width="1"/>
              <path id="_Path_3" d="M0,.273H7.836" transform="translate(10.003 9.434)" fill="none" stroke="#908f91" stroke-miterlimit="10" stroke-width="1"/>
              <path id="_Path_5" d="M3.272,6.264V2.036A1.924,1.924,0,0,0,2.511.28a1.491,1.491,0,0,0-1.74,0A1.924,1.924,0,0,0,.009,2.036v13.5" transform="translate(17.972 0)" fill="none" stroke="#908f91" stroke-linecap="round" stroke-miterlimit="10" stroke-width="1"/>
              <path id="_Path_6" d="M28.5.474A2.938,2.938,0,0,0,25.585.386a3.48,3.48,0,0,1-3.8,0,2.372,2.372,0,0,0-2.593,0,3.48,3.48,0,0,1-3.8,0,2.372,2.372,0,0,0-2.593,0,3.48,3.48,0,0,1-3.8,0A2.372,2.372,0,0,0,6.4.386a3.48,3.48,0,0,1-3.8,0A2.372,2.372,0,0,0,0,.386" transform="translate(0.627 14.572)" fill="none" stroke="#908f91" stroke-linecap="round" stroke-miterlimit="10" stroke-width="1"/>
              <path id="_Path_7" d="M24.282.472A2.1,2.1,0,0,0,21.855.383a2.552,2.552,0,0,1-3.2,0,1.739,1.739,0,0,0-2.179,0,2.552,2.552,0,0,1-3.2,0,1.739,1.739,0,0,0-2.179,0,2.552,2.552,0,0,1-3.2,0,1.739,1.739,0,0,0-2.179,0,2.552,2.552,0,0,1-3.2,0,1.739,1.739,0,0,0-2.179,0L0,.548" transform="translate(2.704 18.351)" fill="none" stroke="#908f91" stroke-linecap="round" stroke-miterlimit="10" stroke-width="1"/>
            </g>
          </g>
        </g>
      </g>
    </g>
  </g>
</svg>
