<svg id="Google__G__Logo" xmlns="http://www.w3.org/2000/svg" width="19.838" height="20.239" viewBox="0 0 19.838 20.239">
  <path id="Path_2" data-name="Path 2" d="M281.819,225.156a11.9,11.9,0,0,0-.175-2.056H272.1V227h5.466a4.684,4.684,0,0,1-2.023,3.075V232.6H278.8A9.882,9.882,0,0,0,281.819,225.156Z" transform="translate(-261.981 -214.804)" fill="#4285f4"/>
  <path id="Path_3" data-name="Path 3" d="M37.943,332.48a9.686,9.686,0,0,0,6.708-2.443l-3.261-2.528a6.137,6.137,0,0,1-9.124-3.209H28.9v2.606A10.12,10.12,0,0,0,37.943,332.48Z" transform="translate(-27.824 -312.241)" fill="#34a853"/>
  <path id="Path_4" data-name="Path 4" d="M4.388,156.481a6.061,6.061,0,0,1,0-3.874V150H1.026a10.128,10.128,0,0,0,0,9.087Z" transform="translate(0.05 -144.422)" fill="#fbbc04"/>
  <path id="Path_5" data-name="Path 5" d="M37.943,3.987A5.5,5.5,0,0,1,41.824,5.5h0l2.889-2.889A9.725,9.725,0,0,0,37.943-.018,10.117,10.117,0,0,0,28.9,5.56l3.361,2.606A6.053,6.053,0,0,1,37.943,3.987Z" transform="translate(-27.824 0.018)" fill="#ea4335"/>
</svg>
