<svg xmlns="http://www.w3.org/2000/svg" width="18" height="14" viewBox="0 0 18 14">
    <path id="eye-slash-solid" fill="#d8d8d8" d="M9 10.934a3.99 3.99 0 0 1-4.019-3.64L2.032 5.078A9.1 9.1 0 0 0 1 6.6a.863.863 0 0 0 0 .8 9.048 9.048 0 0 0 8 4.851 8.971 8.971 0 0 0 2.191-.286l-1.459-1.1a4.166 4.166 0 0 1-.732.069zm8.826 1.589l-3.109-2.336A9.105 9.105 0 0 0 17 7.4a.863.863 0 0 0 0-.8 9.048 9.048 0 0 0-8-4.853 8.863 8.863 0 0 0-4.142 1.031L1.28.089a.459.459 0 0 0-.632.077L.1.857a.429.429 0 0 0 .079.614L16.723 13.9a.459.459 0 0 0 .632-.077l.552-.691a.429.429 0 0 0-.08-.609zM12.66 8.64l-1.105-.831A2.526 2.526 0 0 0 11.7 7a2.566 2.566 0 0 0-1.052-2.1 2.726 2.726 0 0 0-2.36-.424 1.279 1.279 0 0 1 .262.771 1.243 1.243 0 0 1-.043.273L6.438 3.965a4.111 4.111 0 0 1 5.428.247A3.881 3.881 0 0 1 13.051 7a3.756 3.756 0 0 1-.391 1.64z" transform="translate(-.001 .003)"/>
</svg>
