<svg xmlns="http://www.w3.org/2000/svg" width="48.574" height="48.574" viewBox="0 0 48.574 48.574"><g transform="translate(0.5 0.5)"><g transform="translate(0 0)"><ellipse cx="23.787" cy="23.787" rx="23.787" ry="23.787" fill="none" stroke="#7b7b7b" stroke-miterlimit="10" stroke-width="1"/><path d="M4.425,0A.948.948,0,0,0,4.89.352Q8.851,1.779,8.851,2.766T4.975,15.917C4.63,17,3.338,19.281,2.766,19.361c-.816.114-2.332.65-2.766,0" transform="translate(0 8.851)" fill="none" stroke="#7b7b7b" stroke-miterlimit="10" stroke-width="1"/><path d="M0,.8,8.3.25" transform="translate(8.851 13.303)" fill="none" stroke="#7b7b7b" stroke-linecap="round" stroke-miterlimit="10" stroke-width="1"/><path d="M0,16.176,14.838,26.921S17.729,28.9,18.255,28.9a3.151,3.151,0,0,0,2.213-1.106s3.319,1.106,3.872-1.66c.291-1.454,2.048-.266,3.319-.553,1.147-.259,1.809-2.051,2.213-2.213a5.817,5.817,0,0,1,1.66-.553c.367-.092,2.5-.854,1.106-2.766a52.317,52.317,0,0,0-5.532-6.085c-3.88-3.733-7.353-6.144-7.745-6.085-.7.105-3,0-4.425,1.66s-3.872,3.319-5.532.553S15.489,1.24,15.489,1.24s4.979-2.766,9.4.553,6.638,2.766,6.638,2.766" transform="translate(4.425 11.081)" fill="none" stroke="#7b7b7b" stroke-miterlimit="10" stroke-width="1"/><path d="M0,0,4.425,4.425,5.532,5.532" transform="translate(18.808 33.191)" fill="none" stroke="#7b7b7b" stroke-linecap="round" stroke-miterlimit="10" stroke-width="1"/><path d="M0,0,5.192,5.192l.34.34" transform="translate(23.234 30.978)" fill="none" stroke="#7b7b7b" stroke-linecap="round" stroke-miterlimit="10" stroke-width="1"/><path d="M0,0,7.191,7.191" transform="translate(26.553 27.659)" fill="none" stroke="#7b7b7b" stroke-linecap="round" stroke-miterlimit="10" stroke-width="1"/><path d="M0,1.66,2.766,0" transform="translate(37.616 29.872)" fill="none" stroke="#7b7b7b" stroke-miterlimit="10" stroke-width="1"/><path d="M7.688,0,2,2.031a2.213,2.213,0,0,0-1.348,2.8L5.567,19.127A2.213,2.213,0,0,0,7.44,20.609l4.121.412" transform="translate(34.354 9.957)" fill="none" stroke="#7b7b7b" stroke-linecap="round" stroke-miterlimit="10" stroke-width="1"/></g></g></svg>