<svg xmlns="http://www.w3.org/2000/svg" width="29.313" height="31.283" viewBox="0 0 29.313 31.283"><g transform="translate(0.156 0.156)"><g transform="translate(0)"><path d="M65.826,0a.5.5,0,0,0-.5.5V7.982a.5.5,0,0,0,1,0V.5A.5.5,0,0,0,65.826,0Z" transform="translate(-51.326 22.509)" fill="#7b7b7b" stroke="#707070" stroke-width="0.272"/><path d="M4.571,26.737A14.5,14.5,0,0,0,16.258,38.424a.5.5,0,1,0,.177-.982,13.5,13.5,0,1,1,4.806,0,.5.5,0,1,0,.176.982A14.5,14.5,0,1,0,4.571,26.737Z" transform="translate(-4.337 -9.658)" fill="#7b7b7b" stroke="#707070" stroke-width="0.272"/></g></g></svg>