<svg xmlns="http://www.w3.org/2000/svg" width="31.283" height="38.755" viewBox="0 0 31.283 38.755"><g transform="translate(0.5 0.5)"><path d="M62.334,0A15.154,15.154,0,0,0,47.2,15.134a14.9,14.9,0,0,0,.269,2.842c.008.055.04.222.1.507a14.9,14.9,0,0,0,1.013,2.984C50.216,25.3,53.8,31.2,61.669,37.518a1.072,1.072,0,0,0,1.346,0C70.874,31.2,74.468,25.3,76.1,21.466a14.737,14.737,0,0,0,1.013-2.984c.063-.285.095-.451.1-.507a15.564,15.564,0,0,0,.269-2.842A15.178,15.178,0,0,0,62.334,0ZM75.093,17.6c0,.016-.008.032-.008.047-.008.04-.032.158-.071.34v.016a12.566,12.566,0,0,1-.879,2.58c-.008.008-.008.024-.016.032-1.48,3.506-4.725,8.857-11.786,14.691-7.06-5.833-10.306-11.184-11.786-14.691-.008-.008-.008-.024-.016-.032a13.4,13.4,0,0,1-.879-2.58v-.016c-.047-.182-.063-.3-.071-.34,0-.016-.008-.032-.008-.055a13,13,0,1,1,25.518.008Z" transform="translate(-47.2)" fill="#7b7b7b" stroke="#fff" stroke-width="1"/><path d="M126.609,71.9a9.609,9.609,0,1,0,9.609,9.609A9.624,9.624,0,0,0,126.609,71.9Zm0,17.081a7.472,7.472,0,1,1,7.472-7.472A7.481,7.481,0,0,1,126.609,88.981Z" transform="translate(-111.475 -66.209)" fill="#7b7b7b" stroke="#fff" stroke-width="1"/></g></svg>