<svg xmlns="http://www.w3.org/2000/svg" width="155.854" height="161.686" viewBox="0 0 155.854 161.686">
  <g id="Group_2983" data-name="Group 2983" transform="translate(-658.272 -159.36)">
    <path id="Subtraction_1" data-name="Subtraction 1" d="M78.926,9c43.038,0,77.927,35.188,77.927,78.594s-34.889,78.594-77.927,78.594S1,131,1,87.593,35.888,9,78.926,9Z" transform="translate(657.273 154.859)" fill="#d1f2f7"/>
    <path id="Path_12274" data-name="Path 12274" d="M444.18,49.365a2.473,2.473,0,1,1,2.473-2.474A2.473,2.473,0,0,1,444.18,49.365Zm2.473,12.317a2.473,2.473,0,1,0-2.473,2.474A2.473,2.473,0,0,0,446.653,61.682Zm0,14.791a2.473,2.473,0,1,0-2.473,2.473A2.473,2.473,0,0,0,446.653,76.473Zm0,14.791a2.473,2.473,0,1,0-2.473,2.473A2.473,2.473,0,0,0,446.653,91.264Zm0,14.79a2.473,2.473,0,1,0-2.473,2.474A2.473,2.473,0,0,0,446.653,106.054ZM431.862,46.892a2.473,2.473,0,1,0-2.473,2.474A2.473,2.473,0,0,0,431.862,46.892Zm0,14.791a2.473,2.473,0,1,0-2.473,2.474A2.473,2.473,0,0,0,431.862,61.682Zm0,14.791a2.473,2.473,0,1,0-2.473,2.473A2.473,2.473,0,0,0,431.862,76.473Zm0,14.791a2.473,2.473,0,1,0-2.473,2.473A2.473,2.473,0,0,0,431.862,91.264Zm0,14.79a2.473,2.473,0,1,0-2.473,2.474A2.473,2.473,0,0,0,431.862,106.054Zm-14.79-59.162a2.473,2.473,0,1,0-2.474,2.474A2.473,2.473,0,0,0,417.073,46.892Zm0,14.791a2.473,2.473,0,1,0-2.474,2.474A2.473,2.473,0,0,0,417.073,61.682Zm0,14.791a2.473,2.473,0,1,0-2.474,2.473A2.473,2.473,0,0,0,417.073,76.473Zm0,14.791a2.473,2.473,0,1,0-2.474,2.473A2.473,2.473,0,0,0,417.073,91.264Zm0,14.79a2.473,2.473,0,1,0-2.474,2.474A2.473,2.473,0,0,0,417.073,106.054ZM402.282,46.892a2.473,2.473,0,1,0-2.473,2.474A2.473,2.473,0,0,0,402.282,46.892Zm0,14.791a2.473,2.473,0,1,0-2.473,2.474A2.473,2.473,0,0,0,402.282,61.682Zm0,14.791a2.473,2.473,0,1,0-2.473,2.473A2.473,2.473,0,0,0,402.282,76.473Zm0,14.791a2.473,2.473,0,1,0-2.473,2.473A2.473,2.473,0,0,0,402.282,91.264Zm0,14.79a2.473,2.473,0,1,0-2.473,2.474A2.473,2.473,0,0,0,402.282,106.054ZM387.491,46.892a2.473,2.473,0,1,0-2.473,2.474A2.473,2.473,0,0,0,387.491,46.892Zm0,14.791a2.473,2.473,0,1,0-2.473,2.474A2.473,2.473,0,0,0,387.491,61.682Zm0,14.791a2.473,2.473,0,1,0-2.473,2.473A2.473,2.473,0,0,0,387.491,76.473Zm0,14.791a2.473,2.473,0,1,0-2.473,2.473A2.473,2.473,0,0,0,387.491,91.264Zm0,14.79a2.473,2.473,0,1,0-2.473,2.474A2.473,2.473,0,0,0,387.491,106.054Z" transform="translate(359.436 114.941)" fill="#00bbd8"/>
    <path id="Path_12275" data-name="Path 12275" d="M444.18,49.365a2.473,2.473,0,1,1,2.473-2.474A2.473,2.473,0,0,1,444.18,49.365Zm2.473,12.317a2.473,2.473,0,1,0-2.473,2.474A2.473,2.473,0,0,0,446.653,61.682Zm0,14.791a2.473,2.473,0,1,0-2.473,2.473A2.473,2.473,0,0,0,446.653,76.473Zm0,14.791a2.473,2.473,0,1,0-2.473,2.473A2.473,2.473,0,0,0,446.653,91.264Zm0,14.79a2.473,2.473,0,1,0-2.473,2.474A2.473,2.473,0,0,0,446.653,106.054ZM431.862,46.892a2.473,2.473,0,1,0-2.473,2.474A2.473,2.473,0,0,0,431.862,46.892Zm0,14.791a2.473,2.473,0,1,0-2.473,2.474A2.473,2.473,0,0,0,431.862,61.682Zm0,14.791a2.473,2.473,0,1,0-2.473,2.473A2.473,2.473,0,0,0,431.862,76.473Zm0,14.791a2.473,2.473,0,1,0-2.473,2.473A2.473,2.473,0,0,0,431.862,91.264Zm0,14.79a2.473,2.473,0,1,0-2.473,2.474A2.473,2.473,0,0,0,431.862,106.054Zm-14.79-59.162a2.473,2.473,0,1,0-2.474,2.474A2.473,2.473,0,0,0,417.073,46.892Zm0,14.791a2.473,2.473,0,1,0-2.474,2.474A2.473,2.473,0,0,0,417.073,61.682Zm0,14.791a2.473,2.473,0,1,0-2.474,2.473A2.473,2.473,0,0,0,417.073,76.473Zm0,14.791a2.473,2.473,0,1,0-2.474,2.473A2.473,2.473,0,0,0,417.073,91.264Zm0,14.79a2.473,2.473,0,1,0-2.474,2.474A2.473,2.473,0,0,0,417.073,106.054ZM402.282,46.892a2.473,2.473,0,1,0-2.473,2.474A2.473,2.473,0,0,0,402.282,46.892Zm0,14.791a2.473,2.473,0,1,0-2.473,2.474A2.473,2.473,0,0,0,402.282,61.682Zm0,14.791a2.473,2.473,0,1,0-2.473,2.473A2.473,2.473,0,0,0,402.282,76.473Zm0,14.791a2.473,2.473,0,1,0-2.473,2.473A2.473,2.473,0,0,0,402.282,91.264Zm0,14.79a2.473,2.473,0,1,0-2.473,2.474A2.473,2.473,0,0,0,402.282,106.054ZM387.491,46.892a2.473,2.473,0,1,0-2.473,2.474A2.473,2.473,0,0,0,387.491,46.892Zm0,14.791a2.473,2.473,0,1,0-2.473,2.474A2.473,2.473,0,0,0,387.491,61.682Zm0,14.791a2.473,2.473,0,1,0-2.473,2.473A2.473,2.473,0,0,0,387.491,76.473Zm0,14.791a2.473,2.473,0,1,0-2.473,2.473A2.473,2.473,0,0,0,387.491,91.264Zm0,14.79a2.473,2.473,0,1,0-2.473,2.474A2.473,2.473,0,0,0,387.491,106.054Z" transform="translate(359.436 114.941)" fill="#00bbd8"/>
    <path id="Path_12277" data-name="Path 12277" d="M454.543,49.365a2.473,2.473,0,1,1,2.473-2.474A2.473,2.473,0,0,1,454.543,49.365Z" transform="translate(349.074 114.941)" fill="#e70"/>
    <path id="Path_12278" data-name="Path 12278" d="M454.767,49.813a2.7,2.7,0,1,1,2.7-2.7A2.7,2.7,0,0,1,454.767,49.813Z" transform="translate(289.91 144.277)" fill="#e70"/>
  </g>
</svg>
