<svg id="Group_2984" data-name="Group 2984" xmlns="http://www.w3.org/2000/svg" width="180.246" height="133.086" viewBox="0 0 180.246 133.086">
  <path id="Path_12262" data-name="Path 12262" d="M474.208,164.109H652.524a.965.965,0,0,0,.965-.965v-5.429a.965.965,0,0,0-.965-.965h-3.3V110.618h3.3a.965.965,0,0,0,.965-.965V39.628a.965.965,0,0,0-.965-.965H601.807V31.988a.966.966,0,0,0-.965-.965H581.163a.964.964,0,0,0-.965.965v6.674H474.208a.966.966,0,0,0-.965.965v70.025a.966.966,0,0,0,.965.965h3.685v46.132h-3.685a.966.966,0,0,0-.965.965v5.429A.966.966,0,0,0,474.208,164.109ZM582.129,32.954h17.748v5.628H582.129Zm65.161,123.8h-3.564V110.618h3.564Zm-13.311,0v-20.4H641.8v20.4Zm-10.062,0v-20.4h8.132v20.4Zm-10.049,0v-20.4h8.118v20.4Zm-9.761,0v-20.4h7.83v20.4Zm-26.534,0V113.058a.965.965,0,0,0-.965-.965H550.125a.966.966,0,0,0-.965.965v43.691H530.437V110.618h1.28a.973.973,0,0,0,.683-.282l30.976-30.978,30.976,30.978a.965.965,0,0,0,.682.282h1.645v46.132Zm-1.931,0H551.09V114.023h24.551Zm-60.447,0v-20.4h7.815v20.4Zm-10.062,0v-20.4h8.132v20.4Zm-10.049,0v-20.4H503.2v20.4Zm-9.761,0v-20.4h7.831v20.4Zm37.687-46.132v23.8H485.323v-23.8Zm1.931,0h3.566v46.132H524.94Zm73.669,0h3.566v46.132H598.61Zm43.186,0v23.8H604.106v-23.8ZM475.174,40.593H651.559v64.43h-54.6l-32.9-32.9a.992.992,0,0,0-1.365,0l-32.9,32.9H475.174Zm0,66.36H530.2a.972.972,0,0,0,.683-.282l32.5-32.5,32.5,32.5a.964.964,0,0,0,.681.282h55v1.734H595.434L564.058,77.309a.992.992,0,0,0-1.365,0l-31.376,31.378H475.174Zm4.651,3.664h3.568v46.132h-3.568Zm-4.651,48.062H651.559v3.5H475.174Z" transform="translate(-473.243 -31.023)" fill="#5f5c60"/>
  <path id="Path_12263" data-name="Path 12263" d="M484.521,91.662a.966.966,0,0,0,.965-.965v-15.2h18.18V90.7a.965.965,0,0,0,1.931,0V74.528a.964.964,0,0,0-.965-.965H484.521a.963.963,0,0,0-.965.965V90.7A.964.964,0,0,0,484.521,91.662Z" transform="translate(-463.646 8.565)" fill="#5f5c60"/>
  <path id="Path_12264" data-name="Path 12264" d="M487.674,82.808a.962.962,0,0,0,.682-.282l5.711-5.713a.964.964,0,0,0-1.365-1.363L486.99,81.16a.965.965,0,0,0,.683,1.649Z" transform="translate(-460.713 10.057)" fill="#5f5c60"/>
  <path id="Path_12265" data-name="Path 12265" d="M497.585,75.451,486.928,86.108a.965.965,0,1,0,1.365,1.365L498.95,76.814a.964.964,0,0,0-1.365-1.363Z" transform="translate(-460.77 10.057)" fill="#5f5c60"/>
  <path id="Path_12266" data-name="Path 12266" d="M546.045,91.662a.966.966,0,0,0,.965-.965v-15.2h18.18V90.7a.965.965,0,0,0,1.931,0V74.528a.964.964,0,0,0-.965-.965H546.045a.964.964,0,0,0-.965.965V90.7A.966.966,0,0,0,546.045,91.662Z" transform="translate(-406.392 8.565)" fill="#5f5c60"/>
  <path id="Path_12267" data-name="Path 12267" d="M549.2,82.808a.97.97,0,0,0,.683-.282l5.711-5.713a.964.964,0,0,0-1.365-1.363l-5.711,5.709a.965.965,0,0,0,.681,1.649Z" transform="translate(-403.458 10.057)" fill="#5f5c60"/>
  <path id="Path_12268" data-name="Path 12268" d="M559.111,75.451,548.452,86.108a.966.966,0,0,0,.684,1.649.956.956,0,0,0,.681-.284l10.659-10.659a.964.964,0,0,0-1.365-1.363Z" transform="translate(-403.517 10.057)" fill="#5f5c60"/>
</svg>
