<svg xmlns="http://www.w3.org/2000/svg" width="29.313" height="31.284" viewBox="0 0 29.313 31.284">
  <g id="_864387" data-name="864387" transform="translate(-4.181 0.136)">
    <g id="Group_2910" data-name="Group 2910" transform="translate(4.337)">
      <g id="Group_2909" data-name="Group 2909" transform="translate(0)">
        <path id="Path_12176" data-name="Path 12176" d="M65.826,8.482a.5.5,0,0,0,.5-.5V.5a.5.5,0,0,0-1,0V7.983A.5.5,0,0,0,65.826,8.482Z" transform="translate(-51.326)" fill="#7b7b7b" stroke="#707070" stroke-width="0.272"/>
        <path id="Path_12177" data-name="Path 12177" d="M33.1,21.353A14.5,14.5,0,0,0,21.417,9.666a.5.5,0,0,0-.177.982,13.5,13.5,0,1,1-4.806,0,.5.5,0,0,0-.176-.982A14.5,14.5,0,1,0,33.1,21.353Z" transform="translate(-4.337 -7.441)" fill="#7b7b7b" stroke="#707070" stroke-width="0.272"/>
      </g>
    </g>
  </g>
</svg>
