<svg id="Group_2883" data-name="Group 2883" xmlns="http://www.w3.org/2000/svg" width="17.639" height="16.112" viewBox="0 0 17.639 16.112">
  <path id="Path_12142" data-name="Path 12142" d="M12.936,22.164A5.537,5.537,0,0,0,8.82,24.041,5.537,5.537,0,0,0,4.7,22.164C1.88,22.164,0,24.79,0,27.731c0,2.2,1.11,6.488,8.542,10.476a.588.588,0,0,0,.556,0c7.432-3.988,8.542-8.275,8.542-10.476C17.639,24.721,15.7,22.164,12.936,22.164ZM8.82,37.019c-3.57-1.963-7.644-5.233-7.644-9.288,0-2.256,1.355-4.391,3.528-4.391A4.451,4.451,0,0,1,8.32,25.3a.588.588,0,0,0,1,0,4.506,4.506,0,0,1,3.616-1.961c2.189,0,3.528,2.156,3.528,4.391C16.463,31.786,12.39,35.056,8.82,37.019Z" transform="translate(0 -22.164)" fill="#7b7b7b"/>
</svg>
