<svg xmlns="http://www.w3.org/2000/svg" width="46.538" height="54.104" viewBox="0 0 46.538 54.104">
  <g id="Group_2533" data-name="Group 2533" transform="translate(-1216.814 -1409.506)">
    <g id="Group_2532" data-name="Group 2532" transform="translate(1216.814 1409.506)">
      <g id="_1740364" data-name="1740364" transform="translate(0 0)">
        <path id="Path_11932" data-name="Path 11932" d="M350.776,320.534l-.561-1.654A15.7,15.7,0,0,0,360.881,304h1.745a17.445,17.445,0,0,1-11.851,16.534Zm0,0" transform="translate(-319.579 -270.839)" fill="#7b7b7b"/>
        <path id="Path_11939" data-name="Path 11939" d="M146.58,17.345A25.551,25.551,0,0,0,152.333,1.2V0h-.873c-2.994,0-4.043,1.679-4.887,3.028-.8,1.282-1.381,2.208-3.406,2.208-2.137,0-3.182-1.089-4.39-2.349C137.481,1.533,136.011,0,133.13,0s-4.35,1.534-5.647,2.888c-1.206,1.26-2.25,2.348-4.384,2.348-2.025,0-2.6-.927-3.4-2.208C118.851,1.679,117.8,0,114.81,0h-.873V1.2a25.551,25.551,0,0,0,5.753,16.149,21.055,21.055,0,0,0-7.475,15.071l1.744.066a19.377,19.377,0,0,1,7.268-14.156h23.817a19.109,19.109,0,1,1-24.362,29.439l-1.133,1.327A20.85,20.85,0,1,0,146.58,17.345Zm-26.585-2.51h26.28c-.42.6-.865,1.182-1.341,1.745h-23.6c-.477-.563-.923-1.146-1.342-1.745ZM118.214,3.953c.843,1.349,1.892,3.028,4.885,3.028,2.88,0,4.348-1.533,5.645-2.887,1.208-1.26,2.251-2.349,4.386-2.349s3.181,1.089,4.388,2.349c1.3,1.354,2.767,2.887,5.65,2.887,2.993,0,4.043-1.679,4.886-3.028.672-1.073,1.186-1.9,2.527-2.137a23.8,23.8,0,0,1-3.194,11.273h-28.5A23.8,23.8,0,0,1,115.69,1.816c1.339.24,1.854,1.064,2.524,2.137Zm0,0" transform="translate(-107.541 0)" fill="#7b7b7b"/>
        <path id="Path_11940" data-name="Path 11940" d="M12.8,313.606a12.8,12.8,0,1,1,12.8-12.8A12.818,12.818,0,0,1,12.8,313.606Zm0,0" transform="translate(0 -261.394)" fill="#8fdeea"/>
      </g>
      <text id="_" data-name="$" transform="translate(13.039 45.514)" fill="#fff" font-size="17" font-family="ArialMT, Arial" letter-spacing="0.005em"><tspan x="-4.727" y="0">$</tspan></text>
    </g>
  </g>
</svg>
