<svg id="Group_3956" data-name="Group 3956" xmlns="http://www.w3.org/2000/svg" width="25.406" height="25.406" viewBox="0 0 25.406 25.406">
  <g id="Group_327" data-name="Group 327">
    <g id="Group_326" data-name="Group 326">
      <path id="Path_4592" data-name="Path 4592" d="M12.7,0a12.7,12.7,0,1,0,12.7,12.7A12.717,12.717,0,0,0,12.7,0Zm0,24.3A11.6,11.6,0,1,1,24.3,12.7,11.611,11.611,0,0,1,12.7,24.3Z" fill="#595959"/>
    </g>
  </g>
  <g id="Group_329" data-name="Group 329" transform="translate(5.523 12.151)">
    <g id="Group_328" data-name="Group 328">
      <path id="Path_4593" data-name="Path 4593" d="M113.846,234.667a7.188,7.188,0,0,0-7.18,7.18.552.552,0,1,0,1.1,0,6.075,6.075,0,1,1,12.151,0,.552.552,0,1,0,1.1,0A7.188,7.188,0,0,0,113.846,234.667Z" transform="translate(-106.666 -234.667)" fill="#595959"/>
    </g>
  </g>
  <g id="Group_331" data-name="Group 331" transform="translate(8.837 3.314)">
    <g id="Group_330" data-name="Group 330">
      <path id="Path_4594" data-name="Path 4594" d="M174.532,64a3.866,3.866,0,1,0,3.866,3.866A3.87,3.87,0,0,0,174.532,64Zm0,6.628a2.761,2.761,0,1,1,2.761-2.761A2.765,2.765,0,0,1,174.532,70.628Z" transform="translate(-170.666 -64)" fill="#595959"/>
    </g>
  </g>
</svg>
