<svg xmlns="http://www.w3.org/2000/svg" id="_2115419"  viewBox="0 0 339 367.53">
    <defs>
        <clipPath id="clip-path">
            <path id="Rectangle_1019" d="M0 0H339V339H0z"/>
        </clipPath>
        <clipPath id="clip-path-2">
            <path id="Path_12542" d="M338.553 0v338.553H0z"/>
        </clipPath>
        <style>
            .cls-5{fill:#efc3a5}.cls-6{fill:none;stroke-miterlimit:10;stroke:#793d02}.cls-8{fill:#00bbd8}.cls-9{fill:#707070}.cls-10{fill:#3a82e2}
        </style>
    </defs>
    <g id="OBJEKTS">
        <g id="Group_3178" transform="translate(107.545 197.286)">
            <g id="Group_3177">
                <path id="Path_12522" fill="#007588" d="M251.321 404.392c-12.544 1.624-26.261-.361-38.263-3.339-4.332-1.083-8.663-2.437-13.085-2.8s-9.2.271-12.814 2.978c-1.715 1.263-3.158 2.978-3.158 5.054-.09 3.7 3.971 5.866 7.4 7.219 11.1 4.241 22.29 8.573 33.57 12.273a66.961 66.961 0 0 0 11.822 3.068c5.866.9 11.732.451 17.6-.271 7.49-.9 14.98-2.076 22.29-3.7 3.7-.812 7.31-1.8 11.01-2.617a67.8 67.8 0 0 0 10.107-3.7 90.511 90.511 0 0 0 14.89-7.941c1.9-1.173 3.429-1.354 4.332-3.7 1.9-4.873-.993-8.393-5.685-9.476a34.553 34.553 0 0 0-9.656-.361c-9.115.632-18.229 1.624-27.253 2.8-4.241.542-9.114.722-13.175 2.076a43.2 43.2 0 0 1-9.932 2.437z" transform="translate(-181.365 -285.172)"/>
                <path id="Path_12523" fill="#e70" d="M225.5 326.7a27.718 27.718 0 0 0-2.256 2.346c-11.371 12.634-15.7 30.141-12.453 46.746 1.173 5.776 3.7 11.551 8.122 15.522a9.517 9.517 0 0 0 3.249 2.076c2.707.9 5.6-.09 8.032-1.534s4.512-3.429 6.949-4.783c6.5-3.519 14.439-2.346 21.478-.09 4.332 1.354 8.573 3.158 12.995 4.422a37.454 37.454 0 0 0 11.371 1.083c8.122-.181 15.793-4.512 20.936-10.649 2.617-3.159 4.6-6.407 4.693-10.558a42.394 42.394 0 0 0-1.985-12.093c-2.437-8.754-7.49-16.063-12.544-23.463-3.61-5.234-7.219-11.822-13.446-14.349-4.963-1.985-10.107-.722-15.161.451a28.393 28.393 0 0 1-15.883.271l-6.227-1.354a21.5 21.5 0 0 0-2.346-.451 11.289 11.289 0 0 0-3.88.271A22.533 22.533 0 0 0 225.5 326.7z" transform="translate(-183.877 -277.687)"/>
                <path id="Path_12524" d="M272.692 317.455c-1.173-.09-2.978-.271-3.79-1.173-1.8-2.076-1.985-5.776-1.624-8.393a5.341 5.341 0 0 1 .451-1.715c.361-.722.812-1.354 1.263-2.076 1.8-2.8 1.8-6.137 1.534-9.295-.18-2.166.181-5.234-1.624-6.858a18.472 18.472 0 0 0-3.068-2.346 12.554 12.554 0 0 0-4.422-1.715 9.96 9.96 0 0 0-7.31 1.624c-2.256 1.534-2.888 4.151-3.339 6.678-.451 2.888-.632 5.956.541 8.663.451 1.173 1.173 2.166 1.715 3.339a13.894 13.894 0 0 1 1.354 3.159 14.526 14.526 0 0 1 0 3.429c-.181 2.076-.271 6.949-3.068 7.039a12.452 12.452 0 0 1-1.8-.271 7.294 7.294 0 0 1 .632 1.985 7.426 7.426 0 0 0 1.083 2.256 8.245 8.245 0 0 0 4.061 2.888 17.881 17.881 0 0 0 7.58.361c3.068-.361 6.588-1.173 8.573-3.7a6.9 6.9 0 0 0 1.624-3.7.36.36 0 0 0-.366-.179z" class="cls-5" transform="translate(-187.756 -274.128)"/>
                <path id="Path_12525" d="M285.3 346.4c5.866 9.475 9.024 17.778 10.378 28.878" class="cls-6" transform="translate(-191.25 -280.242)"/>
                <path id="Path_12526" d="M234.878 345.3c-3.068 4.151-5.144 23.644-3.068 29.78" class="cls-6" transform="translate(-185.949 -280.135)"/>
                <path id="Path_12527" fill="#fbfffa" d="M286.206 403.4h-63.44a2.2 2.2 0 0 1-2.166-2.166v-38.168a2.2 2.2 0 0 1 2.166-2.166h63.441a2.2 2.2 0 0 1 2.166 2.166v38.173a2.2 2.2 0 0 1-2.167 2.161z" transform="translate(-184.937 -281.657)"/>
                <path id="Path_12528" d="M281.852 403.959c13.988-5.324 29.419-9.475 43.677-4.873 2.8.9 5.6 2.256 7.129 4.693 2.346 3.7.9 8.844-2.076 12s-7.31 4.783-11.461 6.137c-15.431 4.963-31.495 7.671-47.558 10.288A172.913 172.913 0 0 1 249 434.912c-5.144.181-7.129-5.324-6.227-9.927.812-3.88 4.512-5.234 7.671-6.949a287.551 287.551 0 0 1 31.408-14.077z" class="cls-8" transform="translate(-187.08 -285.189)"/>
                <path id="Path_12529" d="M252.761 434.895c-.993.993-21.568 6.136-21.568 6.136l-.993-11.01 16.424-4.422z" class="cls-9" transform="translate(-185.873 -287.97)"/>
                <path id="Path_12530" d="M227.986 442.268c-3.519.722-7.039-.09-10.919-.451-3.339-.361-6.768.181-10.107-.361-5.776-1.083-11.01-9.2-5.324-13.717a8.137 8.137 0 0 1 5.956-1.444 28.541 28.541 0 0 1 6.046 1.624c2.978.993 6.227 1.534 9.024 2.8a8.358 8.358 0 0 0 3.88 1.083c.361 0 3.88-.451 3.7-.9.9 3.249.361 6.768 1.715 9.927a13.163 13.163 0 0 1-3.971 1.439z" class="cls-10" transform="translate(-182.847 -288.033)"/>
                <path id="Path_12531" d="M265.5 442.356l21.568 3.068 3.068-11.28L269.561 429z" class="cls-9" transform="translate(-189.318 -288.302)"/>
                <path id="Path_12532" d="M266.468 442.832c.812-2.166 1.534-4.332 2.166-6.588.993-3.339 1.715-6.678 2.8-9.927-7.671-3.7-15.883-6.5-23.824-9.746-5.685-2.346-11.28-4.693-16.966-7.039-9.024-3.79-18.5-8.754-28.336-10.378-5.5-.9-11.371-.451-16.244 2.346-2.437 1.444-4.693 3.79-4.963 6.678-.361 4.783 4.873 7.851 9.385 9.746a568.795 568.795 0 0 0 74.631 24.636 5.017 5.017 0 0 0 1.351.272z" class="cls-8" transform="translate(-181.08 -285.349)"/>
                <path id="Path_12533" d="M318.163 450.935c-1.715-3.971-5.685-6.949-8.844-9.746-3.158-2.888-6.317-5.866-8.393-9.656a10.528 10.528 0 0 0-1.534-2.346 4.909 4.909 0 0 0-3.88-.993 9.891 9.891 0 0 0-3.79 1.534 29.182 29.182 0 0 0-3.971 2.437l-.451.451a18.523 18.523 0 0 1 .632 2.8 36.209 36.209 0 0 1 .18 5.415 28.854 28.854 0 0 1-.812 5.6c1.9.18 4.151.271 4.512.361 4.783.542 8.3 2.978 11.732 5.956.812.722 1.715 1.444 2.527 2.256a11.986 11.986 0 0 0 6.588 3.429c2.527.271 5.324-.993 6.046-3.429a7.827 7.827 0 0 0-.542-4.069z" class="cls-10" transform="translate(-191.445 -288.218)"/>
                <path id="Path_12534" fill="#0a0a0a" d="M261.641 382.471a3.971 3.971 0 1 1-3.971-3.971 4.006 4.006 0 0 1 3.971 3.971z" transform="translate(-188.166 -283.374)"/>
                <path id="Path_12535" fill="#6e6e6e" d="M248.806 282.935a1.283 1.283 0 0 0-.18-.541c-.9-3.068.18-5.5 3.339-5.866 1.715-.181 2.888-1.173 4.422-1.8 1.083-.451 2.256-.722 3.339-1.083a11.594 11.594 0 0 1 8.844.722 5.448 5.448 0 0 1 2.8 3.61c.271 1.083.271 2.346.451 3.429a3.732 3.732 0 0 0 1.9 2.8 5.333 5.333 0 0 1 1.263.542c.722.632 1.083 2.617 1.263 3.519a8.505 8.505 0 0 1-.993 4.693 16.646 16.646 0 0 1-1.534 2.256c-.632.9-1.173 1.8-1.8 2.707a9.462 9.462 0 0 1-.722.993l-.812.541c-.181.09-.541.271-.722.09s-.09-.451 0-.722a5.323 5.323 0 0 0 .632-2.256 9.136 9.136 0 0 0-.18-2.707c-.271-1.173-.812-2.166-1.173-3.429a8.384 8.384 0 0 0-4.512-5.234c-1.173-.451-2.617-.812-3.61.181a11.32 11.32 0 0 0-1.444 2.166 3.045 3.045 0 0 1-1.985 1.534c-.9.09-1.624-.451-2.527-.632-5.5-1.083-4.151 6.858-4.151 9.656-1.083.361-1.985-.722-2.527-1.715-2.166-3.61-3.339-8.032 0-11.461a5.168 5.168 0 0 0 .632-.722 2.011 2.011 0 0 0-.013-1.271z" transform="translate(-187.423 -273.089)"/>
                <path id="Path_12536" fill="none" stroke="#e70" stroke-miterlimit="10" d="M259.1 302.8a3.907 3.907 0 0 0 4.6 1.083" transform="translate(-188.693 -275.988)"/>
                <path id="Path_12537" d="M273.487 293.8a2.065 2.065 0 0 0-2.166.993.9.9 0 0 0-.361.451 2.179 2.179 0 0 0 .632 3.068h.09a1.379 1.379 0 0 0 1.444.09c.09 0 .18-.09.271-.18a3.019 3.019 0 0 0 1.444-1.354 2.106 2.106 0 0 0-1.354-3.068z" class="cls-5" transform="translate(-189.815 -275.105)"/>
                <path id="Path_12538" d="M252.971 296.778c-.09-1.8-2.437-2.617-3.88-1.624a2.326 2.326 0 0 0-.541 3.339c1.444 1.9 3.79 1.354 4.332-.993a2.243 2.243 0 0 0 .089-.722z" class="cls-5" transform="translate(-187.618 -275.2)"/>
                <path id="Path_12539" fill="none" stroke="#cfc4c4" stroke-miterlimit="10" d="M274.834 320.8a9.712 9.712 0 0 1-4.6 7.039 17.675 17.675 0 0 1-8.3 2.346 17.448 17.448 0 0 1-9.385-1.624c-2.8-1.534-5.054-4.512-5.144-7.671" transform="translate(-187.551 -277.744)"/>
                <path id="Path_12540" fill="none" stroke="#60a9b5" stroke-miterlimit="10" d="M254.6 418.2c7.941 3.61 15.522 7.039 23.644 10.288" transform="translate(-188.254 -287.248)"/>
            </g>
        </g>
    </g>
</svg>
