<svg xmlns="http://www.w3.org/2000/svg" width="12.213" height="6.355" viewBox="0 0 12.213 6.355">
  <g id="UI_System_Icons_bath" data-name="UI/System/Icons/bath" opacity="0.34">
    <g id="_001-bathtub" data-name="001-bathtub" transform="translate(0 0)">
      <path id="Shape" d="M9.567,6.334l-.846-.318a5.176,5.176,0,0,1-1.2.14H4.689a5.192,5.192,0,0,1-1.017-.1l-.741.279a.334.334,0,0,1-.117.021.307.307,0,0,1-.281-.168A.264.264,0,0,1,2.7,5.829l.094-.035A4.231,4.231,0,0,1,0,1.94a.29.29,0,0,1,.3-.274h.927V.274A.29.29,0,0,1,1.535,0H3.1a.29.29,0,0,1,.3.274v.784a.306.306,0,0,1-.608,0V.547H1.839V1.666h10.07a.29.29,0,0,1,.3.274,4.211,4.211,0,0,1-2.655,3.8l.243.091a.264.264,0,0,1,.163.358.307.307,0,0,1-.281.168A.333.333,0,0,1,9.567,6.334Z"/>
    </g>
  </g>
</svg>
