<svg xmlns="http://www.w3.org/2000/svg" width="13.073" height="7.924" viewBox="0 0 13.073 7.924">
  <g id="UI_System_Icons_bed" data-name="UI/System/Icons/bed" opacity="0.34">
    <g id="bed" transform="translate(0 0)">
      <path id="Shape" d="M11.423,7.924a.477.477,0,0,1-.5-.451V6.294H2.153V7.472a.477.477,0,0,1-.5.451H1.174a.477.477,0,0,1-.5-.451V6.306H.5A.477.477,0,0,1,0,5.855V4.376a1.249,1.249,0,0,1,1.23-1.3V1.166A1.154,1.154,0,0,1,2.531,0H10.5a1.161,1.161,0,0,1,1.3,1.166V3.072a1.308,1.308,0,0,1,1.272,1.3V5.842a.477.477,0,0,1-.5.451H12.4V7.472a.477.477,0,0,1-.5.451Z"/>
    </g>
  </g>
</svg>
