<svg xmlns="http://www.w3.org/2000/svg" width="22.995" height="22.955" viewBox="0 0 22.995 22.955">
  <g id="reload" transform="translate(-0.003 0)">
    <g id="UI_System_Icons_Update" data-name="UI/System/Icons/Update">
      <path id="Path" d="M20.473,3.578,15.976.224a1.18,1.18,0,0,0-1.522.117.883.883,0,0,0,.133,1.347l2.23,1.677H6.134C2.748,3.369,0,5.8,0,8.794v1.716a1.024,1.024,0,0,0,1.08.956,1.024,1.024,0,0,0,1.08-.956V8.777A3.772,3.772,0,0,1,6.134,5.261H16.822l-2.23,1.677a.883.883,0,0,0-.133,1.347,1.18,1.18,0,0,0,1.522.117l4.5-3.354A.883.883,0,0,0,20.613,3.7a1.05,1.05,0,0,0-.133-.118Z" transform="translate(2.132 0)" fill="#c7c7c7"/>
      <path id="Path-2" data-name="Path" d="M19.754,0a1.024,1.024,0,0,0-1.08.956V2.689A3.772,3.772,0,0,1,14.7,6.205H4.012l2.23-1.677a.9.9,0,0,0,.423-1.3A1.157,1.157,0,0,0,5.2,2.855a1.049,1.049,0,0,0-.313.231L.386,6.44A.883.883,0,0,0,.253,7.787,1.05,1.05,0,0,0,.386,7.9l4.5,3.354a1.18,1.18,0,0,0,1.522-.117.883.883,0,0,0-.133-1.347L4.043,8.117H14.7c3.386,0,6.13-2.432,6.134-5.428V.956A1.024,1.024,0,0,0,19.754,0Z" transform="translate(0.003 11.472)" fill="#c7c7c7"/>
    </g>
  </g>
</svg>
