<svg xmlns="http://www.w3.org/2000/svg" width="11.4" height="7.131" viewBox="0 0 11.4 7.131">
  <g id="UI_System_Icons_sqft" data-name="UI/System/Icons/sqft" opacity="0.34">
    <g id="_002-blueprint" data-name="002-blueprint" transform="translate(0 0)">
      <path id="Path" d="M11.081,0H.319A.3.3,0,0,0,0,.285v.973a.3.3,0,0,0,.319.285.3.3,0,0,0,.319-.285V.57H8.407v.513a.321.321,0,0,0,.638,0V.57h1.716V3.28H5.235V2.315a.321.321,0,0,0-.638,0v2.5a.321.321,0,0,0,.638,0V3.85h5.527v2.71H9.045V6.048a.321.321,0,0,0-.638,0v.513H.638V2.866a.3.3,0,0,0-.319-.285A.3.3,0,0,0,0,2.866v3.98a.3.3,0,0,0,.319.285H11.081a.3.3,0,0,0,.319-.285V.285A.3.3,0,0,0,11.081,0Z" transform="translate(0 0)"/>
    </g>
  </g>
</svg>
