<svg xmlns="http://www.w3.org/2000/svg" width="53.907" height="53.907" viewBox="0 0 53.907 53.907">
  <g id="Group_2537" data-name="Group 2537" transform="translate(-14717.779 -4568.228)">
    <g id="mathematics" transform="translate(14717.779 4568.228)">
      <path id="Path_12130" data-name="Path 12130" d="M51.429,46.3V2.739A1.741,1.741,0,0,0,49.691,1H47.952a1.741,1.741,0,0,0-1.739,1.739v8.695H9.695V2.739A1.741,1.741,0,0,0,7.956,1H6.217A1.741,1.741,0,0,0,4.478,2.739V46.3A4.356,4.356,0,0,0,1,50.56v4.347H16.914l.219-.146a9.458,9.458,0,0,1,5.26-1.593h11.12a9.463,9.463,0,0,1,5.261,1.593l.219.146H54.907V50.56A4.356,4.356,0,0,0,51.429,46.3ZM49.691,2.739V46.213H47.952V2.739Zm-3.478,33.04H9.695V25.345H46.213Zm0,1.739v8.695H9.695V37.518Zm0-24.345V23.606H9.695V13.173ZM7.956,2.739V46.213H6.217V2.739ZM53.168,53.168H39.514a11.183,11.183,0,0,0-6-1.739H22.393a11.183,11.183,0,0,0-6,1.739H2.739V50.56a2.612,2.612,0,0,1,2.608-2.608H50.56a2.612,2.612,0,0,1,2.608,2.608Z" transform="translate(-1 -1)" fill="#7b7b7b"/>
      <ellipse id="Ellipse_68" data-name="Ellipse 68" cx="3.547" cy="3.31" rx="3.547" ry="3.31" transform="translate(19.861 8.039)" fill="#8fdeea"/>
      <ellipse id="Ellipse_69" data-name="Ellipse 69" cx="3.31" cy="3.31" rx="3.31" ry="3.31" transform="translate(34.047 8.039)" fill="#8fdeea"/>
      <ellipse id="Ellipse_70" data-name="Ellipse 70" cx="3.31" cy="3.31" rx="3.31" ry="3.31" transform="translate(13.24 8.039)" fill="#8fdeea"/>
      <ellipse id="Ellipse_73" data-name="Ellipse 73" cx="3.547" cy="3.547" rx="3.547" ry="3.547" transform="translate(35.465 19.861)" fill="#8fdeea"/>
      <ellipse id="Ellipse_74" data-name="Ellipse 74" cx="3.31" cy="3.547" rx="3.31" ry="3.547" transform="translate(28.845 32.155)" fill="#8fdeea"/>
      <ellipse id="Ellipse_75" data-name="Ellipse 75" cx="3.547" cy="3.547" rx="3.547" ry="3.547" transform="translate(35.465 32.155)" fill="#8fdeea"/>
      <ellipse id="Ellipse_76" data-name="Ellipse 76" cx="3.547" cy="3.547" rx="3.547" ry="3.547" transform="translate(11.349 32.155)" fill="#8fdeea"/>
    </g>
  </g>
</svg>
