<svg xmlns="http://www.w3.org/2000/svg" width="54" height="54" viewBox="0 0 54 54">
    <defs>
        <style>
            .cls-1{fill:#8fdeea}.cls-2{fill:#7b7b7b}
        </style>
    </defs>
    <g id="_1740402" data-name="1740402">
        <path id="Path_11942" d="M153.581 195.161a9.581 9.581 0 1 1 9.581-9.581 9.592 9.592 0 0 1-9.581 9.581zm0 0" class="cls-1" data-name="Path 11942" transform="translate(-128.323 -156.839)"/>
        <path id="Path_11943" d="M147.017 39.331l-1.583-.726a11.361 11.361 0 0 1 10.3-6.6v1.742a9.613 9.613 0 0 0-8.712 5.589zm0 0" class="cls-2" data-name="Path 11943" transform="translate(-129.601 -28.516)"/>
        <path id="Path_11944" d="M54 20.032a7.844 7.844 0 0 0-6.649-7.738 6.085 6.085 0 0 0-7.588-3.232 14.789 14.789 0 0 0-28.221 3.282 7.838 7.838 0 0 0 .7 15.483c-.021.3-.046.606-.046.915a12.963 12.963 0 0 0 1.785 6.558l-1.786 1.786-.871-.871-9.986 9.991A4.566 4.566 0 0 0 7.8 52.663l9.986-9.986-.871-.871L18.7 40.02a13.017 13.017 0 0 0 15.443-1.7h5.566l1.742 1.742h4.715v-1.739h-3.998l-1.742-1.742h-6.99l-.254.249a11.285 11.285 0 1 1 2.931-4.855l-.334 1.12h13.867v-1.74H38.062a13.165 13.165 0 0 0 .261-2.613c0-.294-.025-.582-.044-.871h7.883A7.847 7.847 0 0 0 54 20.032zM6.564 51.431a2.824 2.824 0 0 1-3.994-3.994l8.754-8.754 3.994 3.994zm10.663-12.405l-1.549 1.549-2.252-2.252 1.549-1.549a13.217 13.217 0 0 0 2.252 2.252zm20.833-12.9a13.066 13.066 0 0 0-25.6-.031A6.1 6.1 0 1 1 17.1 15.46l1.153-1.306a7.824 7.824 0 0 0-4.926-1.947 13.058 13.058 0 0 1 25.133-1.688l.34.976.9-.5a4.343 4.343 0 0 1 5.621 1.255 7.859 7.859 0 0 0-5.95 3.863l1.507.873a6.1 6.1 0 1 1 5.282 9.144zm0 0" class="cls-2" data-name="Path 11944" transform="translate(-.001)"/>
        <path id="Path_11948" d="M232 270.1v-1.742a4.36 4.36 0 0 0 4.355-4.358h1.745a6.1 6.1 0 0 1-6.1 6.1zm0 0" class="cls-2" data-name="Path 11948" transform="translate(-206.742 -235.258)"/>
        <g id="Group_2477" data-name="Group 2477" transform="translate(45.29 29.613)">
            <path id="Path_11949" d="M450.613 277.226a2.613 2.613 0 1 1 2.613-2.613 2.616 2.616 0 0 1-2.613 2.613zm0 0" class="cls-1" data-name="Path 11949" transform="translate(-444.516 -272)"/>
            <path id="Path_11950" d="M418.613 341.226a2.613 2.613 0 1 1 2.613-2.613 2.616 2.616 0 0 1-2.613 2.613zm0 0" class="cls-1" data-name="Path 11950" transform="translate(-416 -329.032)"/>
        </g>
    </g>
</svg>
