<svg xmlns="http://www.w3.org/2000/svg" id="_222222" width="58.956" height="53.907" data-name="222222" viewBox="0 0 58.956 53.907">
    <defs>
        <style>
            .cls-2{fill:#7b7b7b}
        </style>
    </defs>
    <path id="Path_12011" fill="#8fdeea" d="M76.08 32.477a23.1 23.1 0 1 0 23.1 23.1 23.1 23.1 0 0 0-23.1-23.1zm0 41.393a18.29 18.29 0 1 1 18.29-18.29 18.29 18.29 0 0 1-18.29 18.29zm0 0" data-name="Path 12011" transform="translate(-46.602 -28.626)"/>
    <path id="Path_12012" d="M230.388 2.4a24.982 24.982 0 0 1 24.87 22.246l.22 1.992 4.387-4.386-1.365-1.36-1.616 1.615A26.905 26.905 0 0 0 230.388.477c-.666 0-1.338.024-2 .072l.141 1.921c.612-.045 1.235-.067 1.855-.067zm0 0" class="cls-2" data-name="Path 12012" transform="translate(-200.91 -.477)"/>
    <path id="Path_12013" d="M29.478 255.282a24.983 24.983 0 0 1-24.871-22.247l-.22-1.992L0 235.43l1.361 1.361 1.616-1.616a26.906 26.906 0 0 0 26.5 22.031c.668 0 1.341-.024 2-.073l-.142-1.92c-.608.046-1.232.068-1.854.068zm0 0" class="cls-2" data-name="Path 12013" transform="translate(0 -203.299)"/>
    <path id="Path_12014" d="M104.23 64.477a19.253 19.253 0 1 0 19.253 19.253 19.275 19.275 0 0 0-19.253-19.253zm.963 36.531v-4.765h-1.925v4.764a17.322 17.322 0 0 1-16.317-16.315h4.764v-1.925h-4.764a17.323 17.323 0 0 1 16.316-16.316v4.764h1.925v-4.764a17.322 17.322 0 0 1 16.315 16.316h-4.764v1.925h4.764a17.321 17.321 0 0 1-16.315 16.315zm0 0" class="cls-2" data-name="Path 12014" transform="translate(-74.752 -56.776)"/>
    <path id="Path_12015" d="M224.828 144.355v-7.878H222.9v7.878a2.881 2.881 0 1 0 3.673 3.673h4.027V146.1h-4.028a2.883 2.883 0 0 0-1.744-1.745zm-.963 3.673a.963.963 0 1 1 .963-.963.964.964 0 0 1-.963.963zm0 0" class="cls-2" data-name="Path 12015" transform="translate(-194.387 -120.112)"/>
</svg>
