<svg xmlns="http://www.w3.org/2000/svg" width="54.38" height="54.277" viewBox="0 0 54.38 54.277">
  <g id="Group_2535" data-name="Group 2535" transform="translate(-1092 -1247.228)">
    <g id="_222" data-name="222" transform="translate(1092 1247.228)">
      <g id="Group_2494" data-name="Group 2494" transform="translate(0 0)">
        <rect id="Rectangle_634" data-name="Rectangle 634" width="8.512" height="1.891" transform="translate(13.24 49.179)" fill="#7b7b7b"/>
        <path id="Path_11991" data-name="Path 11991" d="M430.128,88.351h1.751V80.472H424v1.751h6.128Z" transform="translate(-377.602 -71.718)" fill="#7b7b7b"/>
        <path id="Path_11992" data-name="Path 11992" d="M430.128,334.6H424v1.751h7.879v-7.879h-1.751Z" transform="translate(-377.602 -292.579)" fill="#7b7b7b"/>
        <path id="Path_11993" data-name="Path 11993" d="M33.751,82.223h6.128V80.472H32v7.879h1.751Z" transform="translate(-28.498 -71.718)" fill="#7b7b7b"/>
        <path id="Path_11994" data-name="Path 11994" d="M33.751,328.472H32v7.879h7.879V334.6H33.751Z" transform="translate(-28.498 -292.579)" fill="#7b7b7b"/>
        <path id="Path_11995" data-name="Path 11995" d="M54.185,27.126l.2-.391-.2-.391c-.228-.459-5.178-10.006-19.167-12.261V4.849A4.382,4.382,0,0,0,30.64.472H4.377A4.382,4.382,0,0,0,0,4.849V50.372a4.382,4.382,0,0,0,4.377,4.377H30.64a4.382,4.382,0,0,0,4.377-4.377V39.388C49.006,37.133,53.956,27.585,54.185,27.126Zm-1.787-.4c-1.221,2.034-7.707,11.386-23.509,11.386C12.945,38.116,6.6,28.83,5.38,26.74,6.6,24.707,13.088,15.354,28.889,15.354,44.834,15.354,51.174,24.64,52.4,26.73ZM4.377,2.223H30.64a2.63,2.63,0,0,1,2.626,2.626v.875H1.751V4.849A2.63,2.63,0,0,1,4.377,2.223ZM30.64,53H4.377a2.63,2.63,0,0,1-2.626-2.626V47.745H33.267v2.626A2.63,2.63,0,0,1,30.64,53Zm2.626-7H1.751V7.475H33.267v6.371a39.51,39.51,0,0,0-4.377-.243c-18.71,0-25.036,12.219-25.3,12.74l-.2.391.2.391c.259.521,6.585,12.74,25.295,12.74a39.51,39.51,0,0,0,4.377-.243Z" transform="translate(0 -0.472)" fill="#7b7b7b"/>
      </g>
    </g>
    <path id="Path_12139" data-name="Path 12139" d="M152.383,279.218l-6.968-6.968a4.833,4.833,0,0,1,6.835-6.835l.134.134.134-.134a4.833,4.833,0,0,1,6.835,6.835Zm0,0" transform="translate(968.852 1002.463)" fill="#8fdeea"/>
  </g>
</svg>
