<svg xmlns="http://www.w3.org/2000/svg" xmlns:xlink="http://www.w3.org/1999/xlink" width="16" height="20" viewBox="0 0 16 20">
  <defs>
    <clipPath id="clip-path">
      <path id="Mask" d="M4.063,14.327v-.011H8.937v.011C8.937,15.251,7.846,16,6.5,16S4.063,15.251,4.063,14.327ZM.9,13.474A.907.907,0,0,1,.1,13a.879.879,0,0,1,.052-.916L1.944,9.5V6.272a4.506,4.506,0,0,1,3.662-4.4V.879a.893.893,0,0,1,1.786,0v.994a4.505,4.505,0,0,1,3.662,4.4V9.5l1.789,2.586A.879.879,0,0,1,12.9,13a.906.906,0,0,1-.8.474Z" transform="translate(-0.001)" />
    </clipPath>
    <clipPath id="clip-path-2">
      <circle id="Mask-2" data-name="Mask" cx="2" cy="2" r="2" transform="translate(-0.001)" fill="none"/>
    </clipPath>
  </defs>
  <g id="Group_3959" data-name="Group 3959" transform="translate(-377 -2090)">
    <g id="Group_3958" data-name="Group 3958" transform="translate(42)">
      <g id="UI_System_icons_Bell" data-name="UI/System/icons/Bell" transform="translate(335.001 2094)">
        <g id="UI_System_Color_Green01" data-name="UI/System/Color/Green01">
          <path id="Mask-3" data-name="Mask" d="M4.063,14.327v-.011H8.937v.011C8.937,15.251,7.846,16,6.5,16S4.063,15.251,4.063,14.327ZM.9,13.474A.907.907,0,0,1,.1,13a.879.879,0,0,1,.052-.916L1.944,9.5V6.272a4.506,4.506,0,0,1,3.662-4.4V.879a.893.893,0,0,1,1.786,0v.994a4.505,4.505,0,0,1,3.662,4.4V9.5l1.789,2.586A.879.879,0,0,1,12.9,13a.906.906,0,0,1-.8.474Z" transform="translate(-0.001)" />
          <g id="UI_System_Color_Green01-2" data-name="UI/System/Color/Green01" clip-path="url(#clip-path)">
            <g id="UI_System_Color_Green01-3" data-name="UI/System/Color/Green01" transform="translate(-0.001)">
              <g id="UI_System_Color_Green01-4" data-name="UI/System/Color/Green01">
                <rect id="Rectangle" width="13" height="16" />
              </g>
            </g>
          </g>
        </g>
      </g>
      <g id="UI_System_Count_Active" data-name="UI/System/Count/Active" transform="translate(347.001 2090)">
        <circle id="Mask-4" data-name="Mask" cx="2" cy="2" r="2" transform="translate(-0.001)" fill="none"/>
        <g id="UI_System_Count_Active-2" data-name="UI/System/Count/Active" clip-path="url(#clip-path-2)">
          <g id="UI_System_Color_Green01-5" data-name="UI/System/Color/Green01">
            <rect id="Rectangle-2" data-name="Rectangle" width="4" height="4" transform="translate(-0.001)" />
          </g>
        </g>
      </g>
    </g>
  </g>
</svg>
