<svg xmlns="http://www.w3.org/2000/svg" width="45.458" height="45.458" viewBox="0 0 45.458 45.458">
  <g id="Group_3535" data-name="Group 3535" transform="translate(0.315 0.315)">
    <g id="Group_2" data-name="Group 2">
      <ellipse id="Oval-Copy-60" cx="22.414" cy="22.414" rx="22.414" ry="22.414" fill="#fff" stroke="#7b7b7b" stroke-miterlimit="10" stroke-width="0.63"/>
    </g>
    <g id="Group_3534" data-name="Group 3534" transform="translate(8.986 10.268)">
      <path id="Path_12703" data-name="Path 12703" d="M270.619,276.991a.55.55,0,0,0-.661-.881,3.647,3.647,0,0,0,0,5.834,2.546,2.546,0,0,1,0,4.073.55.55,0,0,0,.661.881,3.646,3.646,0,0,0,0-5.834,2.546,2.546,0,0,1,0-4.073Z" transform="translate(-253.721 -262.79)" fill="#7b7b7b" stroke="#fff" stroke-width="0.3"/>
      <path id="Path_12704" data-name="Path 12704" d="M360.619,276.991a.55.55,0,0,0-.661-.881,3.647,3.647,0,0,0,0,5.834,2.546,2.546,0,0,1,0,4.073.55.55,0,1,0,.661.881,3.647,3.647,0,0,0,0-5.834,2.546,2.546,0,0,1,0-4.073Z" transform="translate(-338.767 -262.79)" fill="#7b7b7b" stroke="#fff" stroke-width="0.3"/>
      <path id="Path_12705" data-name="Path 12705" d="M180.619,276.99a.55.55,0,0,0-.661-.881,3.647,3.647,0,0,0,0,5.834,2.546,2.546,0,0,1,0,4.073.55.55,0,1,0,.661.881,3.647,3.647,0,0,0,0-5.834,2.546,2.546,0,0,1,0-4.073Z" transform="translate(-168.675 -262.789)" fill="#7b7b7b" stroke="#fff" stroke-width="0.3"/>
      <path id="Path_12706" data-name="Path 12706" d="M90.619,276.99a.55.55,0,0,0-.661-.881,3.647,3.647,0,0,0,0,5.834,2.546,2.546,0,0,1,0,4.073.55.55,0,1,0,.661.881,3.647,3.647,0,0,0,0-5.834,2.546,2.546,0,0,1,0-4.073Z" transform="translate(-83.629 -262.789)" fill="#7b7b7b" stroke="#fff" stroke-width="0.3"/>
      <path id="Path_12707" data-name="Path 12707" d="M25.98,36H2.2A2.2,2.2,0,0,0,0,38.2v8.256a.55.55,0,0,0,.55.55H11.614a.55.55,0,1,0,0-1.1H4.4v-2.2H23.778v2.2H16.568a.55.55,0,1,0,0,1.1H27.631a.55.55,0,0,0,.55-.55V38.2A2.2,2.2,0,0,0,25.98,36Zm1.1,9.908h-2.2V43.155a.55.55,0,0,0-.55-.55H3.853a.55.55,0,0,0-.55.55v2.752H1.1V38.2a1.1,1.1,0,0,1,1.1-1.1H25.98a1.1,1.1,0,0,1,1.1,1.1Z" transform="translate(0 -36)" fill="#7b7b7b" stroke="#fff" stroke-width="0.3"/>
    </g>
  </g>
</svg>
