<svg xmlns="http://www.w3.org/2000/svg" width="45.458" height="45.458" viewBox="0 0 45.458 45.458">
  <g id="Group_55_Copy_2" data-name="Group 55 Copy 2" transform="translate(0.315 0.315)">
    <g id="Group_3949" data-name="Group 3949">
      <ellipse id="Oval-Copy-60_Copy_6" data-name="Oval-Copy-60 Copy 6" cx="22.414" cy="22.414" rx="22.414" ry="22.414" fill="#fff" stroke="#7b7b7b" stroke-miterlimit="10" stroke-width="0.63"/>
      <g id="Group_18_Copy" data-name="Group 18 Copy" transform="translate(8.325 7.685)">
        <path id="Path_2" data-name="Path 2" d="M0,0S2.992,10.246,12.688,10.246,25.616,0,25.616,0" transform="translate(1.921 19.212)" fill="none" stroke="#7b7b7b" stroke-linecap="round" stroke-miterlimit="10" stroke-width="0.8"/>
        <path id="Path_4" data-name="Path 4" d="M.5.575H29.78" transform="translate(-0.5 18.093)" fill="none" stroke="#7b7b7b" stroke-linecap="round" stroke-linejoin="round" stroke-miterlimit="10" stroke-width="0.8"/>
        <path id="Path_5" data-name="Path 5" d="M.014,15.37a8.634,8.634,0,0,1,1.07-4.807c1.555-2.3,5.161-3.831,5.161-6.22,0-1.252,2.217,3.11,2.217,3.11S11.521,2.889,11.521.384s10.093,7.8,8.869,14.379" transform="translate(4.483 0)" fill="none" stroke="#7b7b7b" stroke-linecap="round" stroke-linejoin="round" stroke-miterlimit="10" stroke-width="0.8"/>
        <path id="Path_6" data-name="Path 6" d="M0,7.685S3.288,1.7,3.791,2.81A13.074,13.074,0,0,0,5.2,4.567S8.247,0,8.443,0s3.87,4.26,2.931,7.685" transform="translate(9.606 8.966)" fill="none" stroke="#7b7b7b" stroke-linecap="round" stroke-linejoin="round" stroke-miterlimit="10" stroke-width="0.8"/>
      </g>
    </g>
  </g>
</svg>
