<svg xmlns="http://www.w3.org/2000/svg" width="45.458" height="45.458" viewBox="0 0 45.458 45.458">
  <g id="Group_3950" data-name="Group 3950" transform="translate(0.315 0.315)">
    <g id="Group_48_Copy" data-name="Group 48 Copy">
      <ellipse id="Oval-Copy-33_Copy_29" data-name="Oval-Copy-33 Copy 29" cx="22.414" cy="22.414" rx="22.414" ry="22.414" fill="#fff" stroke="#7b7b7b" stroke-miterlimit="10" stroke-width="0.63"/>
    </g>
    <g id="_685784" data-name="685784" transform="translate(5.704 11.409)">
      <g id="Group_3537" data-name="Group 3537" transform="translate(0 0)">
        <path id="Path_12708" data-name="Path 12708" d="M26.646,80.13a7.463,7.463,0,0,0-2.772.554L22.7,78.4V74.76a.521.521,0,0,0-.347-.485l-2.772-1.04a.515.515,0,0,0-.347.97l2.46.9v2.945H11.538v-1h1.247a.52.52,0,0,0,0-1.04H9.563a.52.52,0,0,0,0,1.04H10.5v1.421l-1,2.183A6.665,6.665,0,0,0,7,80.165a7,7,0,1,0,6.965,7.519h2.252a.494.494,0,0,0,.416-.208l5.44-7.866.866,1.629a6.855,6.855,0,0,0-3.292,5.891,7,7,0,1,0,7-7ZM7,93.09A5.96,5.96,0,0,1,7,81.17a5.644,5.644,0,0,1,2.044.381L6.514,86.922v.035a.312.312,0,0,0-.035.173v.035a.312.312,0,0,0,.035.173v.035c0,.035,0,.035.035.069,0,.035.035.035.069.069v.035c.035.035.1.069.139.1h.035a.312.312,0,0,0,.173.035H12.89A5.9,5.9,0,0,1,7,93.09Zm.8-6.48L9.979,82a5.917,5.917,0,0,1,2.945,4.608Zm8.143,0h-2.01A7.049,7.049,0,0,0,10.4,81.031l.936-1.975h9.806Zm10.672,6.48a5.953,5.953,0,0,1-3.188-10.984l2.737,5.267a.541.541,0,0,0,.45.277.642.642,0,0,0,.243-.069.516.516,0,0,0,.208-.693L24.324,81.62a6.4,6.4,0,0,1,2.287-.45,5.96,5.96,0,0,1,0,11.92Z" transform="translate(0 -73.201)" fill="#7b7b7b" stroke="#fff" stroke-width="0.2"/>
      </g>
    </g>
  </g>
</svg>
