<svg xmlns="http://www.w3.org/2000/svg" width="45.458" height="45.458" viewBox="0 0 45.458 45.458">
  <g id="Group_3539" data-name="Group 3539" transform="translate(0.315 0.315)">
    <g id="Group_11_Copy_11" data-name="Group 11 Copy 11" transform="translate(0 0)">
      <g id="Group_11_Copy_9" data-name="Group 11 Copy 9">
        <g id="Group_11_Copy" data-name="Group 11 Copy">
          <g id="Group_10" data-name="Group 10">
            <ellipse id="Oval-Copy-33_Copy_4" data-name="Oval-Copy-33 Copy 4" cx="22.414" cy="22.414" rx="22.414" ry="22.414" fill="#fff" stroke="#7b7b7b" stroke-miterlimit="10" stroke-width="0.63"/>
            <path id="Path_40" data-name="Path 40" d="M0,31.4V1.281A1.281,1.281,0,0,1,1.281,0H25.494a1.281,1.281,0,0,1,1.281,1.281V31.4" transform="translate(8.966 8.966)" fill="none" stroke="#7b7b7b" stroke-miterlimit="10" stroke-width="0.63"/>
            <path id="Path_40_Copy" data-name="Path 40 Copy" d="M0,27.724V1.281A1.281,1.281,0,0,1,1.281,0h19.09a1.281,1.281,0,0,1,1.281,1.281l0,26.734" transform="translate(11.527 14.089)" fill="none" stroke="#7b7b7b" stroke-miterlimit="10" stroke-width="0.63"/>
            <path id="Triangle" d="M1.921,0,3.842,2.562H0Z" transform="translate(15.37 23.055)" fill="#908f91"/>
            <path id="Triangle_Copy" data-name="Triangle Copy" d="M1.921.562,3.842-2H0Z" transform="translate(15.37 32.739)" fill="#908f91"/>
            <path id="Path_41" data-name="Path 41" d="M.5,1V31.739" transform="translate(21.914 13.089)" fill="none" stroke="#7b7b7b" stroke-linecap="round" stroke-linejoin="round" stroke-miterlimit="10" stroke-width="0.63"/>
          </g>
        </g>
      </g>
    </g>
  </g>
</svg>
