<svg xmlns="http://www.w3.org/2000/svg" width="45.458" height="45.458" viewBox="0 0 45.458 45.458">
  <g id="Group_3951" data-name="Group 3951" transform="translate(-993.572 -442.998)">
    <g id="Group_48_Copy" data-name="Group 48 Copy" transform="translate(993.887 443.313)">
      <ellipse id="Oval-Copy-33_Copy_29" data-name="Oval-Copy-33 Copy 29" cx="22.414" cy="22.414" rx="22.414" ry="22.414" fill="#fff" stroke="#7b7b7b" stroke-miterlimit="10" stroke-width="0.63"/>
    </g>
    <g id="_807503" data-name="807503" transform="translate(1001.873 451.299)">
      <g id="Group_3552" data-name="Group 3552" transform="translate(0)">
        <path id="Path_12709" data-name="Path 12709" d="M27.7,0H.836A.836.836,0,0,0,0,.836V27.7a.836.836,0,0,0,.836.836H27.7a.836.836,0,0,0,.836-.836V.836A.836.836,0,0,0,27.7,0ZM1.672,1.672H8.416V18.448H1.672ZM18.448,26.864H1.672V20.12H18.448Zm0-8.416h-8.36v-8.36h8.36Zm8.416,8.416H20.12V10.088h6.744Zm0-18.448H10.088V1.672H26.864Z" transform="translate(0 0)" fill="#7b7b7b" stroke="#fff" stroke-width="1"/>
      </g>
    </g>
  </g>
</svg>
