<svg xmlns="http://www.w3.org/2000/svg" width="45.458" height="45.458" viewBox="0 0 45.458 45.458">
  <g id="Group_49_Copy_2" data-name="Group 49 Copy 2" transform="translate(0.315 0.315)">
    <path id="Oval-Copy-33_Copy_25" data-name="Oval-Copy-33 Copy 25" d="M22.414,0A22.414,22.414,0,1,1,0,22.414,22.414,22.414,0,0,1,22.414,0Z" fill="#fff" stroke="#7b7b7b" stroke-width="0.63"/>
    <g id="Group_27_Copy" data-name="Group 27 Copy" transform="translate(5.123 12.808)">
      <path id="Shape" d="M1.943,16.65H32.638a1.848,1.848,0,0,0,1.943-1.73V7.789a1.948,1.948,0,0,0-2.048-1.824h-.518a2.226,2.226,0,0,0-1.031.248V5.128a.51.51,0,0,0-1.013,0l0,5.678a3.687,3.687,0,0,0-2.473-.918H17.8V2.4A1.6,1.6,0,0,1,19.478.9h8.814a1.6,1.6,0,0,1,1.681,1.5v.627a.51.51,0,0,0,1.013,0V2.4A2.562,2.562,0,0,0,28.291,0H19.478a2.818,2.818,0,0,0-2.187,1A2.819,2.819,0,0,0,15.1,0H6.29A2.562,2.562,0,0,0,3.6,2.4V6.213a2.242,2.242,0,0,0-1.031-.248H2.048A1.948,1.948,0,0,0,0,7.789V14.92A1.848,1.848,0,0,0,1.943,16.65Zm30.59-9.783a.985.985,0,0,1,1.035.922V14.92a.885.885,0,0,1-.93.829H1.943a.885.885,0,0,1-.93-.829V7.789A.985.985,0,0,1,2.05,6.867h.516A1,1,0,0,1,3.6,7.7c0,.014,0,3.238,0,5.158v.133a.473.473,0,0,0,.454.45c.028,0,23.654,0,26.348,0h.075a.482.482,0,0,0,.507-.451c0-.215,0-5.275,0-5.292a1,1,0,0,1,1.031-.835Zm-5.039,3.925a2.432,2.432,0,0,1,2.421,1.751H4.662a2.431,2.431,0,0,1,2.42-1.751ZM15.1.9a1.6,1.6,0,0,1,1.681,1.5V9.89h-9.7a3.686,3.686,0,0,0-2.467.913l0-8.406A1.6,1.6,0,0,1,6.29.9Z" transform="translate(0 0)" fill="#7b7b7b" stroke="#fff" stroke-width="0.2"/>
      <path id="Path_9" data-name="Path 9" d="M.387.281l-.308.84a1.281,1.281,0,0,0,1.2,1.721h.167a1.281,1.281,0,0,0,1.187-.8L3.464,0" transform="matrix(0.998, 0.07, -0.07, 0.998, 5.871, 16.409)" fill="none" stroke="#fff" stroke-linecap="round" stroke-miterlimit="10" stroke-width="0.2"/>
      <path id="Path_9_Copy" data-name="Path 9 Copy" d="M2.869.266l.308.84a1.281,1.281,0,0,1-1.2,1.721H1.867A1.281,1.281,0,0,1,.652,1.953L0,0" transform="matrix(0.998, -0.07, 0.07, 0.998, 25.616, 16.65)" fill="none" stroke="#fff" stroke-linecap="round" stroke-miterlimit="10" stroke-width="0.2"/>
    </g>
  </g>
</svg>
