<svg xmlns="http://www.w3.org/2000/svg" width="45.123" height="45.123" viewBox="0 0 45.123 45.123">
  <g id="Group_3543" data-name="Group 3543" transform="translate(0.315 0.315)">
    <g id="Group_58_Copy" data-name="Group 58 Copy" transform="translate(0 0)">
      <g id="Group_52" data-name="Group 52">
        <ellipse id="Oval-Copy-60_Copy_9" data-name="Oval-Copy-60 Copy 9" cx="22.247" cy="22.247" rx="22.247" ry="22.247" fill="#fff" stroke="#7b7b7b" stroke-miterlimit="10" stroke-width="0.63"/>
      </g>
    </g>
    <g id="gym" transform="translate(7.627 12.712)">
      <path id="Path_12628" data-name="Path 12628" d="M29.365,111.146h-.742v-3a1.278,1.278,0,0,0-1.277-1.277h-1.9a1.27,1.27,0,0,0-.386.06v-.179A1.754,1.754,0,0,0,23.308,105H20.933a1.754,1.754,0,0,0-1.752,1.752v5.243H11.224v-5.243A1.754,1.754,0,0,0,9.472,105H7.1a1.754,1.754,0,0,0-1.752,1.752v.179a1.27,1.27,0,0,0-.386-.06h-1.9a1.278,1.278,0,0,0-1.277,1.277v.575a.445.445,0,0,0,.891,0v-.575a.386.386,0,0,1,.386-.386h1.9a.386.386,0,0,1,.386.386v11.639a.386.386,0,0,1-.386.386h-1.9a.386.386,0,0,1-.386-.386v-9.158a.445.445,0,1,0-.891,0v.518H1.039A1.04,1.04,0,0,0,0,112.186v3.563a1.04,1.04,0,0,0,1.039,1.039h.742v3a1.278,1.278,0,0,0,1.277,1.277h1.9a1.271,1.271,0,0,0,.386-.06v.179A1.754,1.754,0,0,0,7.1,122.934H9.472a1.754,1.754,0,0,0,1.752-1.752v-5.243h.648a.445.445,0,1,0,0-.891h-.648v-2.163h7.957v2.163H13.8a.445.445,0,0,0,0,.891h5.379v5.243a1.754,1.754,0,0,0,1.752,1.752h2.375a1.754,1.754,0,0,0,1.752-1.752V121a1.271,1.271,0,0,0,.386.06h1.9a1.278,1.278,0,0,0,1.277-1.277v-.6a.445.445,0,0,0-.891,0v.6a.386.386,0,0,1-.386.386h-1.9a.386.386,0,0,1-.386-.386V108.147a.386.386,0,0,1,.386-.386h1.9a.386.386,0,0,1,.386.386v9.115a.445.445,0,0,0,.891,0v-.475h.742a1.04,1.04,0,0,0,1.039-1.039v-3.563A1.04,1.04,0,0,0,29.365,111.146ZM1.039,115.9a.149.149,0,0,1-.148-.148v-3.563a.149.149,0,0,1,.148-.148h.742v3.86Zm9.294,5.285a.862.862,0,0,1-.861.861H7.1a.862.862,0,0,1-.861-.861v-14.43a.862.862,0,0,1,.861-.861H9.472a.862.862,0,0,1,.861.861Zm13.837,0a.862.862,0,0,1-.861.861H20.933a.862.862,0,0,1-.861-.861v-14.43a.862.862,0,0,1,.861-.861h2.375a.862.862,0,0,1,.861.861Zm5.345-5.434a.149.149,0,0,1-.148.148h-.742v-3.86h.742a.149.149,0,0,1,.148.148Z" transform="translate(0 -105)" fill="#7b7b7b" stroke="#fff" stroke-width="0.2"/>
    </g>
  </g>
</svg>
