<svg xmlns="http://www.w3.org/2000/svg" width="45.458" height="45.458" viewBox="0 0 45.458 45.458">
  <g id="Group_3955" data-name="Group 3955" transform="translate(-634.819 -386.042)">
    <g id="Group_48_Copy" data-name="Group 48 Copy" transform="translate(635.134 386.357)">
      <ellipse id="Oval-Copy-33_Copy_29" data-name="Oval-Copy-33 Copy 29" cx="22.414" cy="22.414" rx="22.414" ry="22.414" fill="#fff" stroke="#7b7b7b" stroke-miterlimit="10" stroke-width="0.63"/>
    </g>
    <g id="_3100647" data-name="3100647" transform="translate(645.401 395.484)">
      <g id="Group_3532" data-name="Group 3532" transform="translate(0)">
        <path id="Path_12696" data-name="Path 12696" d="M39.16,0H20.748a.392.392,0,1,0,0,.783H39.16a1.3,1.3,0,0,1,1.3,1.3V5.471H16.989V2.084a1.3,1.3,0,0,1,1.3-1.3h.631a.392.392,0,1,0,0-.783H18.29a2.086,2.086,0,0,0-2.084,2.084c0,.911,0,21.5,0,22.562a2.086,2.086,0,0,0,2.084,2.084H39.16a2.086,2.086,0,0,0,2.084-2.084V19.928a.392.392,0,1,0-.783,0v4.718a1.3,1.3,0,0,1-1.3,1.3H18.29a1.3,1.3,0,0,1-1.3-1.3V6.254H40.46V18.1a.392.392,0,1,0,.783,0c0-.259,0-15.753,0-16.017A2.086,2.086,0,0,0,39.16,0Z" transform="translate(-16.206)" fill="#7b7b7b"/>
        <path id="Path_12697" data-name="Path 12697" d="M114.108,158.836a8.268,8.268,0,1,0-.341,3.369c0-.006.005-.012.007-.018A8.312,8.312,0,0,0,114.108,158.836Zm-8.223,8.355A7.485,7.485,0,1,1,112.9,157.1h-1.594a6.018,6.018,0,1,0-.074,5.363h1.612A7.5,7.5,0,0,1,105.885,167.191Zm3.805-4.73h.643a5.234,5.234,0,1,1,.09-5.363h-.733a1.281,1.281,0,0,0-1.28,1.28v2.8A1.281,1.281,0,0,0,109.691,162.461Zm3.416-.783h-3.416a.5.5,0,0,1-.5-.5v-2.8a.5.5,0,0,1,.5-.5h3.455A7.507,7.507,0,0,1,113.107,161.678Z" transform="translate(-93.367 -143.531)" fill="#7b7b7b"/>
      </g>
    </g>
  </g>
</svg>
