<svg xmlns="http://www.w3.org/2000/svg" width="45.458" height="45.458" viewBox="0 0 45.458 45.458">
  <g id="Group_3536" data-name="Group 3536" transform="translate(0.315 0.315)">
    <ellipse id="Oval-Copy-33_Copy_2" data-name="Oval-Copy-33 Copy 2" cx="22.414" cy="22.414" rx="22.414" ry="22.414" transform="translate(0 0)" fill="#fff" stroke="#7b7b7b" stroke-miterlimit="10" stroke-width="0.63"/>
    <g id="XMLID_51_" transform="translate(6.274 9.697)">
      <path id="XMLID_76_" d="M403.051,170.226a.724.724,0,0,0-.654-.416h-.565a.722.722,0,0,0-.554,1.184l.283.339a.722.722,0,0,0,1.109,0l.283-.339A.725.725,0,0,0,403.051,170.226Z" transform="translate(-375.976 -162.553)" fill="#908f91" stroke="#fff" stroke-width="0.5"/>
      <path id="XMLID_87_" d="M376.927,136.073a.627.627,0,1,0,.443.184A.631.631,0,0,0,376.927,136.073Z" transform="translate(-352.72 -130.93)" fill="#908f91" stroke="#fff" stroke-width="0.5"/>
      <path id="XMLID_92_" d="M438.6,137.326a.626.626,0,1,0-.444-.184A.629.629,0,0,0,438.6,137.326Z" transform="translate(-410.526 -130.93)" fill="#908f91" stroke="#fff" stroke-width="0.5"/>
      <path id="XMLID_102_" d="M28.013,65.644A5.25,5.25,0,0,0,31.1,57.463a6.417,6.417,0,0,0,.081-2.5,1.153,1.153,0,0,0-1.588-.871,6.344,6.344,0,0,0-1.908,1.256,5.245,5.245,0,0,0-.848-.069H25.445a5.247,5.247,0,0,0-.842.068A6.345,6.345,0,0,0,22.7,54.09a1.153,1.153,0,0,0-1.588.871,6.414,6.414,0,0,0,.079,2.493,5.247,5.247,0,0,0-.593,1.064H11.739a8.6,8.6,0,0,0-3.646.8.627.627,0,1,0,.528,1.137,7.352,7.352,0,0,1,3.119-.686H20.25a5.244,5.244,0,0,0,5.2,6.007h1.241a6.376,6.376,0,0,1-3.019,3.8l-.332-.71A.627.627,0,1,0,22.2,69.4l1.692,3.614a.628.628,0,0,0,.123.176l.73.736a.4.4,0,0,1-.284.682H22.679s-6.779-8.78-6.8-8.8a5.016,5.016,0,0,0-3.928-1.9.627.627,0,0,0,0,1.253,3.77,3.77,0,0,1,2.235,6.806.627.627,0,0,0,.372,1.131h1a2.134,2.134,0,0,1,2.036,1.5H11.739A7.419,7.419,0,0,1,5,64.086a.627.627,0,0,0-1.138-.525,8.686,8.686,0,0,0-.482,5.926,5.056,5.056,0,0,0,1.675,9.827H21.848a.627.627,0,0,0,.627-.627,4.07,4.07,0,0,0-1.145-2.831h3.13a1.653,1.653,0,0,0,1.174-2.817l-.653-.659L24.2,70.712A7.626,7.626,0,0,0,28.013,65.644Zm-6.566-5.116a4,4,0,0,1,.907-2.536.627.627,0,0,0,.118-.57,5.164,5.164,0,0,1-.148-2.127,5.109,5.109,0,0,1,1.614,1.158.627.627,0,0,0,.6.181,4.021,4.021,0,0,1,.908-.1h1.387a4.02,4.02,0,0,1,.913.106.626.626,0,0,0,.6-.181A5.109,5.109,0,0,1,29.96,55.3a5.166,5.166,0,0,1-.125,2.042.627.627,0,0,0,.088.654,4,4,0,0,1-3.09,6.534H25.445A4,4,0,0,1,21.447,60.528ZM16.021,71.877a5.048,5.048,0,0,0,.946-2.623L21.1,74.6H18.883A3.392,3.392,0,0,0,16.021,71.877ZM5.056,78.061A3.8,3.8,0,0,1,3.8,70.668a8.681,8.681,0,0,0,7.938,5.188H18.39a2.836,2.836,0,0,1,2.761,2.2H5.056Z" transform="translate(0 -53.998)" fill="#7b7b7b" stroke="#fff" stroke-width="0.5"/>
      <path id="XMLID_112_" d="M87.126,165.087a.626.626,0,1,0-.443-.184A.633.633,0,0,0,87.126,165.087Z" transform="translate(-81.08 -156.951)" fill="#908f91" stroke="#fff" stroke-width="0.5"/>
    </g>
  </g>
</svg>
