<svg xmlns="http://www.w3.org/2000/svg" width="45.458" height="45.458" viewBox="0 0 45.458 45.458">
  <g id="Group_3540" data-name="Group 3540" transform="translate(0.315 0.315)">
    <g id="Group_Copy_23" data-name="Group Copy 23" transform="translate(0 0)">
      <g id="Group_Copy_19" data-name="Group Copy 19">
        <g id="Group_Copy_5" data-name="Group Copy 5">
          <g id="Group_Copy_3" data-name="Group Copy 3">
            <g id="Group_Copy_2" data-name="Group Copy 2">
              <ellipse id="Oval-Copy-33" cx="22.414" cy="22.414" rx="22.414" ry="22.414" fill="#fff" stroke="#7b7b7b" stroke-miterlimit="10" stroke-width="0.63"/>
              <g id="Group-2_3_Copy" data-name="Group-2 3 Copy" transform="translate(0.64 9.051)">
                <path id="_Path_" d="M44.021,1.273H.473" transform="translate(-0.473 7.829)" fill="none" stroke="#7b7b7b" stroke-linecap="round" stroke-miterlimit="10" stroke-width="0.63"/>
                <path id="_Path_2" d="M4.729,8.837V2.854A2.821,2.821,0,0,0,4.1.891,2.411,2.411,0,0,0,2.367,0,2.411,2.411,0,0,0,.632.891,2.821,2.821,0,0,0,.005,2.854V21.705" transform="translate(14.43 0)" fill="none" stroke="#7b7b7b" stroke-linecap="round" stroke-miterlimit="10" stroke-width="0.63"/>
                <path id="_Path_3" d="M0,.273H11.3" transform="translate(14.43 13.73)" fill="none" stroke="#7b7b7b" stroke-miterlimit="10" stroke-width="0.63"/>
                <path id="_Path_5" d="M4.721,9.036v-6.1A2.776,2.776,0,0,0,3.622.4a2.15,2.15,0,0,0-2.51,0,2.776,2.776,0,0,0-1.1,2.532V22.406" transform="translate(25.927)" fill="none" stroke="#7b7b7b" stroke-linecap="round" stroke-miterlimit="10" stroke-width="0.63"/>
                <path id="_Path_6" d="M41.119.684a4.239,4.239,0,0,0-4.21-.128,5.02,5.02,0,0,1-5.487,0,3.422,3.422,0,0,0-3.74,0,5.02,5.02,0,0,1-5.487,0,3.422,3.422,0,0,0-3.74,0,5.02,5.02,0,0,1-5.487,0,3.422,3.422,0,0,0-3.74,0,5.02,5.02,0,0,1-5.487,0A3.422,3.422,0,0,0,0,.556" transform="translate(0.904 21.021)" fill="none" stroke="#7b7b7b" stroke-linecap="round" stroke-miterlimit="10" stroke-width="0.63"/>
                <path id="_Path_7" d="M34.967.68a3.034,3.034,0,0,0-3.5-.127,3.681,3.681,0,0,1-4.611,0,2.509,2.509,0,0,0-3.143,0,3.681,3.681,0,0,1-4.611,0,2.509,2.509,0,0,0-3.143,0,3.681,3.681,0,0,1-4.611,0A2.509,2.509,0,0,0,8.2.553a3.681,3.681,0,0,1-4.611,0,2.509,2.509,0,0,0-3.143,0" transform="translate(3.963 26.474)" fill="none" stroke="#7b7b7b" stroke-linecap="round" stroke-miterlimit="10" stroke-width="0.63"/>
              </g>
            </g>
          </g>
        </g>
      </g>
    </g>
  </g>
</svg>
