<svg xmlns="http://www.w3.org/2000/svg" width="45.458" height="45.458" viewBox="0 0 45.458 45.458">
  <g id="Group_40_Copy_4" data-name="Group 40 Copy 4" transform="translate(0.315 0.315)">
    <g id="Group_40_Copy" data-name="Group 40 Copy">
      <ellipse id="Oval-Copy-60_Copy" data-name="Oval-Copy-60 Copy" cx="22.414" cy="22.414" rx="22.414" ry="22.414" fill="#fff" stroke="#7b7b7b" stroke-miterlimit="10" stroke-width="0.63"/>
      <g id="Rectangle" transform="translate(8.966 15.37)" fill="none" stroke="#7b7b7b" stroke-miterlimit="10" stroke-width="0.7">
        <rect width="26.897" height="19.212" rx="3" stroke="none"/>
        <rect x="0.35" y="0.35" width="26.197" height="18.512" rx="2.65" fill="none"/>
      </g>
      <path id="Path_69" data-name="Path 69" d="M15.37,8.8a17.182,17.182,0,0,0-.745-5.1A5.275,5.275,0,0,0,12.3,1.27a8.968,8.968,0,0,0-9.222,0A9.806,9.806,0,0,0,.743,3.46,3.532,3.532,0,0,0,0,5.477" transform="translate(14.089 6.404)" fill="none" stroke="#7b7b7b" stroke-linecap="round" stroke-miterlimit="10" stroke-width="0.7"/>
      <g id="Rectangle-2" data-name="Rectangle" transform="translate(20.493 20.493)" fill="none" stroke="#7b7b7b" stroke-miterlimit="10" stroke-width="0.7">
        <rect width="5.123" height="8.966" rx="2.562" stroke="none"/>
        <rect x="0.35" y="0.35" width="4.423" height="8.266" rx="2.212" fill="none"/>
      </g>
    </g>
  </g>
</svg>
