<svg xmlns="http://www.w3.org/2000/svg" width="47.727" height="47.727" viewBox="0 0 47.727 47.727">
    <g>
        <path fill="#8fdeea" d="M0 0H12.814V6.67H0z" transform="translate(17.393 36.884)"/>
        <path fill="#7b7b7b" d="M42.338 12.317a5.342 5.342 0 0 0-2.816.8l-10.55-6.026A5.386 5.386 0 1 0 18.5 4.9L8.845 9.728a5.392 5.392 0 1 0-1.1 8.966l8.44 6.164a7.692 7.692 0 0 0 3.555 6.082l-3.633 1.321a6.95 6.95 0 0 0-4.56 6.511v8.955H36.18v-8.955a6.949 6.949 0 0 0-4.56-6.511l-3.633-1.321a7.691 7.691 0 0 0 3.574-6.489v-1.357a7.695 7.695 0 0 0-15.388-.152l-7.087-5.176a5.361 5.361 0 0 0 .814-6.845l8.708-4.354a5.381 5.381 0 0 0 9.67 1.9l9.994 5.711a5.382 5.382 0 1 0 4.065-1.863zM30.022 42.338h-1.54a3.053 3.053 0 0 0-2.015.77H21.26a3.05 3.05 0 0 0-2.015-.77h-1.54v-4.619a.771.771 0 0 1 .77-.77h10.777a.771.771 0 0 1 .77.77zm-7.807 2.309h3.3a2.756 2.756 0 0 0 0 1.54h-3.3a2.756 2.756 0 0 0 0-1.54zm12.425-5.875v7.415h-7.488a1.535 1.535 0 0 1 1.33-2.309H33.1v-1.54h-1.54v-4.619a2.312 2.312 0 0 0-2.309-2.309H18.475a2.312 2.312 0 0 0-2.309 2.309v4.619h-1.54v1.54h4.619a1.535 1.535 0 0 1 1.33 2.309h-7.489v-7.415a5.4 5.4 0 0 1 3.546-5.064l3.526-1.282a3.849 3.849 0 0 0 7.408 0l3.526 1.282a5.4 5.4 0 0 1 3.548 5.064zm-10.777-5.083a2.311 2.311 0 0 1-2.263-1.881 7.7 7.7 0 0 0 4.533 0 2.311 2.311 0 0 1-2.27 1.881zm-6.158-10.6a6.158 6.158 0 0 1 12.317 0v1.358a6.158 6.158 0 0 1-12.317 0zM5.389 17.705a3.849 3.849 0 1 1 3.849-3.849 3.853 3.853 0 0 1-3.849 3.849zm18.474-8.468a3.849 3.849 0 1 1 3.849-3.849 3.853 3.853 0 0 1-3.849 3.849zm18.475 12.317a3.849 3.849 0 1 1 3.849-3.849 3.853 3.853 0 0 1-3.849 3.849z"/>
    </g>
</svg>
