<svg xmlns="http://www.w3.org/2000/svg" width="48" height="47.999" viewBox="0 0 48 47.999">
  <g id="Group_512" data-name="Group 512" transform="translate(-10.202 -19.562)">
    <g id="Group_457" data-name="Group 457" transform="translate(10.202 19.562)">
      <g id="Group_350" data-name="Group 350" transform="translate(27.096)">
        <path id="Path_4613" data-name="Path 4613" d="M51.814,4.881l-1.84-1.84A6.92,6.92,0,0,0,45.048,1H41.48a5.48,5.48,0,0,0-3.423,9.759l1.655,1.324.379.273c.115-1.052.288-2.285.554-3.614a8.008,8.008,0,0,1,3.1-.774A5.762,5.762,0,0,1,47.6,9.431a2.094,2.094,0,0,1,.79,1.634h.774a2.322,2.322,0,0,1,2.323,2.323,2.864,2.864,0,0,1-1.548,2.323,6.412,6.412,0,0,0,.2,1.5,5.062,5.062,0,0,0,1.353,2.368v.866l2.424-1.212a5.39,5.39,0,0,0,3-4.847v-4.1a5.426,5.426,0,0,0-5.089-5.409Z" transform="translate(-36 -1)" fill="#8fdeea"/>
      </g>
      <g id="Group_351" data-name="Group 351" transform="translate(4.645)">
        <path id="Path_4614" data-name="Path 4614" d="M23.031,2a3.393,3.393,0,0,0-2.416-1H14.383A7.394,7.394,0,0,0,9.1,3.223,7.905,7.905,0,0,0,7,8.742a6.564,6.564,0,0,0,2.667,5.289l.351.234.172-.075a3.749,3.749,0,0,1-.094-.8,1.548,1.548,0,0,1,1.548-1.548V10.29a3.1,3.1,0,0,1,3.1-3.1h3.871A3.088,3.088,0,0,1,21.52,9.26l.129-.075a5.988,5.988,0,0,0,2.382-4.767,3.393,3.393,0,0,0-1-2.416Z" transform="translate(-7 -1)" fill="#8fdeea"/>
      </g>
      <g id="Group_352" data-name="Group 352" transform="translate(0 5.42)">
        <path id="Path_4615" data-name="Path 4615" d="M48.275,28.047a6.907,6.907,0,0,0-3.066-3.066l-.855-.428V20.84l-.227-.227a4.293,4.293,0,0,1-1.149-2,6.121,6.121,0,0,1-.153-.906,3.422,3.422,0,0,0,1.529-2.736,3.1,3.1,0,0,0-3.1-3.1h-.105A3.016,3.016,0,0,0,40.2,10.43a6.528,6.528,0,0,0-4.366-1.656A8.784,8.784,0,0,0,32.4,9.63l-.339.17-.074.371a40.013,40.013,0,0,0-.789,7.12v.774h1.548v.54a4.106,4.106,0,0,0,4.105,4.105h.21c.111,0,.22-.024.33-.033v2.8l-1.438.288a1.552,1.552,0,0,0-.871.511l-.93,1.085A15.455,15.455,0,0,0,31.8,31.07l-4.48,4.479V32.63a10.7,10.7,0,0,0-10.7-10.7h-.143v-.8a4.688,4.688,0,0,0,4.034-2.943,8.484,8.484,0,0,0,.611-3.169V11.871A3.875,3.875,0,0,0,17.258,8H13.387a3.875,3.875,0,0,0-3.871,3.871v.907a2.327,2.327,0,0,0-1.548,2.19,4.48,4.48,0,0,0,1.322,3.19l.227.227v3.56A8.736,8.736,0,0,0,1,30.684v6.735a8.5,8.5,0,0,0,3.1,6.564v6.6h18.58V45.934h2.08a6.922,6.922,0,0,0,4.927-2.041l.735-.735v7.421H49V31.112a6.89,6.89,0,0,0-.725-3.065Zm-10.593.081H36.609l0-.914,1.7-.339ZM36.833,37l-.971-1.747.663-5.572h1.014l1.106,4.978A14.618,14.618,0,0,1,36.833,37Zm2.92-4.494L38.976,29l1.256-2.512,1.434-.286-1.339,4.687A14.881,14.881,0,0,1,39.753,32.5Zm-.818-10.087,2.474-.495L41.1,20.4l-3.547.71a2.579,2.579,0,0,1-.5.049h-.21A2.558,2.558,0,0,1,34.289,18.6V16.516H32.764a40.994,40.994,0,0,1,.66-5.649,6.836,6.836,0,0,1,2.414-.544,5,5,0,0,1,3.343,1.27,1.334,1.334,0,0,1,.528,1.053v.774h1.548a1.55,1.55,0,0,1,1.548,1.548,2.107,2.107,0,0,1-1.12,1.63l-.428.214v.478a7.152,7.152,0,0,0,.217,1.686,5.788,5.788,0,0,0,1.332,2.493V24.4l-3.871.774ZM35.064,28.7v.155l-.486,4.081-1.046-1.883A13.87,13.87,0,0,1,35.064,28.7Zm-9.29,3.928V37.1l-.414.414a2.34,2.34,0,0,1-1.644.681H22.677V33.548H21.129v4.645H14.935V36.023l4.921-11.951a9.146,9.146,0,0,1,5.918,8.558Zm-3.1,9.517a2.242,2.242,0,0,1-2.224,2.239H18.032V39.741h2.327A2.351,2.351,0,0,1,22.677,42.147ZM15.231,23.483l-.774,1.548H13.091l-.774-1.548Zm.992,5.343-.483-2.9L16.955,23.5a9.162,9.162,0,0,1,1.4.153Zm-5.638-5.343,1.222,2.443-.385,2.307L9.207,23.525c.181-.014.359-.042.542-.042Zm2.683,3.1h1.01l.827,4.961-.992,2.411L12.582,30.7ZM10.29,14.193h.774V11.871a2.325,2.325,0,0,1,2.323-2.323h3.871a2.325,2.325,0,0,1,2.323,2.323v3.151a6.942,6.942,0,0,1-.5,2.594,3.177,3.177,0,0,1-4.712,1.464L13.041,18.2l-.859,1.288,1.327.885a4.717,4.717,0,0,0,1.424.63v.937H11.063V17.744l-.68-.68a2.947,2.947,0,0,1-.867-2.1A.775.775,0,0,1,10.29,14.193ZM2.548,37.419V30.684a7.183,7.183,0,0,1,5.08-6.878l5.758,12.237v2.149H8.742V33.548H7.193v4.645a1.548,1.548,0,0,0,1.544,1.548h7.746v4.646H9.516A6.976,6.976,0,0,1,2.548,37.419Zm18.58,11.613H5.645V44.995a8.451,8.451,0,0,0,3.871.94H21.129Zm7.46-6.232a5.384,5.384,0,0,1-3.832,1.587H23.474a3.869,3.869,0,0,0-.048-4.645h.29a3.9,3.9,0,0,0,2.739-1.134l4.3-4.3a15.387,15.387,0,0,0-.334,3.131v3.529Zm3.378-5.359a13.927,13.927,0,0,1,.789-4.594l2.913,5.243c-.106.09-.206.185-.315.273l-.29.233V49.031h-3.1ZM47.45,49.031H42.805V36.644H41.257V49.031H36.612v-9.7a16.217,16.217,0,0,0,5.2-8.017l1.558-5.454.1-.019,1.046.523a5.307,5.307,0,0,1,2.933,4.745Z" transform="translate(-1 -8)" fill="#7b7b7b"/>
      </g>
    </g>
  </g>
</svg>
