<svg xmlns="http://www.w3.org/2000/svg" width="42.922" height="42.922" viewBox="0 0 42.922 42.922">
  <g id="Group_3947" data-name="Group 3947" transform="translate(-140.001 -508.943)">
    <path id="Path_4563" data-name="Path 4563" d="M423.811,47.731a1.656,1.656,0,1,1,1.655-1.656A1.656,1.656,0,0,1,423.811,47.731Zm1.655,8.247a1.656,1.656,0,1,0-1.655,1.656A1.656,1.656,0,0,0,425.467,55.977Zm0,9.9a1.656,1.656,0,1,0-1.655,1.656A1.656,1.656,0,0,0,425.467,65.88Zm0,9.9a1.656,1.656,0,1,0-1.655,1.656A1.656,1.656,0,0,0,425.467,75.783Zm0,9.9a1.656,1.656,0,1,0-1.655,1.656A1.656,1.656,0,0,0,425.467,85.685Zm-9.9-39.61a1.656,1.656,0,1,0-1.656,1.656A1.656,1.656,0,0,0,415.564,46.075Zm0,9.9a1.656,1.656,0,1,0-1.656,1.656A1.656,1.656,0,0,0,415.564,55.977Zm0,9.9a1.656,1.656,0,1,0-1.656,1.656A1.656,1.656,0,0,0,415.564,65.88Zm0,9.9a1.656,1.656,0,1,0-1.656,1.656A1.656,1.656,0,0,0,415.564,75.783Zm0,9.9a1.656,1.656,0,1,0-1.656,1.656A1.656,1.656,0,0,0,415.564,85.685Zm-9.9-39.61a1.656,1.656,0,1,0-1.656,1.656A1.656,1.656,0,0,0,405.662,46.075Zm0,9.9a1.656,1.656,0,1,0-1.656,1.656A1.656,1.656,0,0,0,405.662,55.977Zm0,9.9a1.656,1.656,0,1,0-1.656,1.656A1.656,1.656,0,0,0,405.662,65.88Zm0,9.9a1.656,1.656,0,1,0-1.656,1.656A1.656,1.656,0,0,0,405.662,75.783Zm0,9.9a1.656,1.656,0,1,0-1.656,1.656A1.656,1.656,0,0,0,405.662,85.685Zm-9.9-39.61a1.656,1.656,0,1,0-1.656,1.656A1.656,1.656,0,0,0,395.759,46.075Zm0,9.9a1.656,1.656,0,1,0-1.656,1.656A1.656,1.656,0,0,0,395.759,55.977Zm0,9.9a1.656,1.656,0,1,0-1.656,1.656A1.656,1.656,0,0,0,395.759,65.88Zm0,9.9a1.656,1.656,0,1,0-1.656,1.656A1.656,1.656,0,0,0,395.759,75.783Zm0,9.9a1.656,1.656,0,1,0-1.656,1.656A1.656,1.656,0,0,0,395.759,85.685Zm-9.9-39.61a1.656,1.656,0,1,0-1.656,1.656A1.656,1.656,0,0,0,385.857,46.075Zm0,9.9a1.656,1.656,0,1,0-1.656,1.656A1.656,1.656,0,0,0,385.857,55.977Zm0,9.9a1.656,1.656,0,1,0-1.656,1.656A1.656,1.656,0,0,0,385.857,65.88Zm0,9.9a1.656,1.656,0,1,0-1.656,1.656A1.656,1.656,0,0,0,385.857,75.783Zm0,9.9a1.656,1.656,0,1,0-1.656,1.656A1.656,1.656,0,0,0,385.857,85.685Z" transform="translate(-242.544 464.524)" fill="#00bbd8"/>
  </g>
</svg>
