<svg id="Group_2514" data-name="Group 2514" xmlns="http://www.w3.org/2000/svg" width="49.526" height="49" viewBox="0 0 49.526 49">
  <g id="_1464268" data-name="1464268" transform="translate(0 0)">
    <path id="Path_11926" data-name="Path 11926" d="M184,146.734h30.355v3.2H184Zm0,0" transform="translate(-165.627 -132.083)" fill="#8fdeea"/>
    <path id="Path_11927" data-name="Path 11927" d="M49.526,18.645V14.294L33.55,0,28.769,4.277V4.267H9.174L.046,17.048H1.6V34.768A2.393,2.393,0,0,0,0,37.018v2.4H17.721a2.365,2.365,0,0,0-.147.8v2.4h8.149v-1.6H19.172v-.8a.8.8,0,0,1,.8-.8h5.752v-1.6H20.769V18.645H46.331V37.817h-3.2V25.036H33.55v7.231h1.6V26.633h6.39V37.817h-.161v1.6H47.13a.8.8,0,0,1,.8.8v.8H41.378v1.6h8.149v-2.4a2.393,2.393,0,0,0-1.6-2.249V18.645Zm-1.6-3.637v2.039H19.172V15.009L33.55,2.144ZM10,5.864H27l-9.422,8.43V15.45H3.15ZM1.6,37.018a.8.8,0,0,1,.8-.8H19.172v1.6H1.6Zm17.574-2.4H3.2V17.048H17.574v1.6h1.6Zm0,0" transform="translate(0 0)" fill="#7b7b7b"/>
    <path id="Path_11929" data-name="Path 11929" d="M258.013,334.76a10.013,10.013,0,1,1,10.013-10.013A10.025,10.025,0,0,1,258.013,334.76Zm0,0" transform="translate(-225.69 -285.76)" fill="#8fdeea"/>
  </g>
  <text id="_" data-name="$" transform="translate(32.223 44.168)" fill="#fff" font-size="15" font-family="ArialMT, Arial" letter-spacing="0.005em"><tspan x="-4.171" y="0">$</tspan></text>
</svg>
