<svg xmlns="http://www.w3.org/2000/svg" width="48.024" height="48.024" viewBox="0 0 48.024 48.024">
  <g id="Group_3947" data-name="Group 3947" transform="translate(-575 -550.271)">
    <g id="Group_2512" data-name="Group 2512" transform="translate(575 550.271)">
      <g id="Group_2505" data-name="Group 2505" transform="translate(0)">
        <g id="_11111" data-name="11111">
          <g id="Group_2500" data-name="Group 2500" transform="translate(18.59 22.463)">
            <path id="Path_12088" data-name="Path 12088" d="M31.2,67.463H25V45h6.2Z" transform="translate(-25 -45)" fill="#8fdeea"/>
          </g>
          <path id="Path_12098" data-name="Path 12098" d="M41.844,10.94l1.056-.905a10.863,10.863,0,0,0,3.8-8.26V1h-.775a4.462,4.462,0,0,0-3.47,1.794,2.752,2.752,0,0,1-4.681,0,4.252,4.252,0,0,0-6.939,0,2.749,2.749,0,0,1-4.678,0A4.459,4.459,0,0,0,22.688,1h-.775v.775a10.864,10.864,0,0,0,3.8,8.259l1.058.907a15.364,15.364,0,0,0-4.348,4H4.873A3.877,3.877,0,0,0,1,18.815V45.151a3.877,3.877,0,0,0,3.873,3.873H25.012a3.877,3.877,0,0,0,3.873-3.873V37.143a14.579,14.579,0,0,0,5.422,1.037A14.733,14.733,0,0,0,49.024,23.463,14.906,14.906,0,0,0,41.844,10.94ZM23.506,2.675a3.868,3.868,0,0,1,1.522,1.178,4.251,4.251,0,0,0,6.938,0,2.749,2.749,0,0,1,4.678,0,4.254,4.254,0,0,0,6.941,0,3.876,3.876,0,0,1,1.523-1.178,9.314,9.314,0,0,1-3.215,6.183l-1.675,1.436H28.4L26.721,8.858a9.316,9.316,0,0,1-3.215-6.183Zm3.83,42.476a2.327,2.327,0,0,1-2.324,2.324H4.873a2.327,2.327,0,0,1-2.324-2.324V18.815a2.327,2.327,0,0,1,2.324-2.324H25.012a2.327,2.327,0,0,1,2.324,2.324Zm6.971-8.52a13.026,13.026,0,0,1-5.422-1.185V18.815a3.877,3.877,0,0,0-3.873-3.873H24.4a13.825,13.825,0,0,1,3.9-3.1H40.313a13.379,13.379,0,0,1,7.162,11.619A13.183,13.183,0,0,1,34.307,36.631Z" transform="translate(-1 -1)" fill="#7b7b7b"/>
          <path id="Path_12099" data-name="Path 12099" d="M52.933,39a10.162,10.162,0,0,1-.89.792L53,41.011a11.485,11.485,0,0,0,1.026-.912c.242-.241.469-.49.685-.747l-1.184-1C53.341,38.578,53.144,38.794,52.933,39Z" transform="translate(-12.506 -9.421)" fill="#7b7b7b"/>
          <path id="Path_12100" data-name="Path 12100" d="M54.274,19.376l-.094-.093L53.1,20.394l.071.07a10.049,10.049,0,0,1,1.146,12.874l1.271.887a11.6,11.6,0,0,0-1.314-14.849Z" transform="translate(-12.744 -5.121)" fill="#7b7b7b"/>
        </g>
        <text id="_" data-name="$" transform="translate(33 27.78)" fill="#7b7b7b" font-size="16" font-family="ArialMT, Arial" letter-spacing="0.005em"><tspan x="-4.449" y="0">$</tspan></text>
      </g>
      <path id="Path_12101" data-name="Path 12101" d="M11.2,65.3H5V53h6.2Z" transform="translate(6.091 -20.394)" fill="#8fdeea"/>
      <path id="Path_12102" data-name="Path 12102" d="M11.2,51.337H5V45h6.2Z" transform="translate(-1.902 -6.412)" fill="#8fdeea"/>
    </g>
  </g>
</svg>
