<svg xmlns="http://www.w3.org/2000/svg" width="47.955" height="47.955" viewBox="0 0 47.955 47.955">
  <g id="Group_3948" data-name="Group 3948" transform="translate(-1023.754 -639)">
    <g id="Group_2509" data-name="Group 2509" transform="translate(1023.754 639)">
      <g id="_2719717" data-name="2719717" transform="translate(0 0)">
        <g id="Group_2462" data-name="Group 2462" transform="translate(15.469 7.735)">
          <g id="Group_2461" data-name="Group 2461">
            <path id="Path_11835" data-name="Path 11835" d="M29.508,28.016a8.508,8.508,0,1,1,8.508-8.508A8.518,8.518,0,0,1,29.508,28.016Z" transform="translate(-21 -11)" fill="#8fdeea"/>
          </g>
        </g>
        <g id="Group_2466" data-name="Group 2466" transform="translate(4.641 36.353)">
          <g id="Group_2465" data-name="Group 2465">
            <path id="Path_11837" data-name="Path 11837" d="M13.188,53.414H7V48h6.188Z" transform="translate(-7 -48)" fill="#8fdeea"/>
          </g>
        </g>
        <g id="Group_2471" data-name="Group 2471" transform="translate(0)">
          <path id="Path_11841" data-name="Path 11841" d="M56.149,47H45.32A2.323,2.323,0,0,0,43,49.32v7.735a2.323,2.323,0,0,0,2.32,2.32H56.149a2.323,2.323,0,0,0,2.32-2.32V49.32A2.323,2.323,0,0,0,56.149,47Zm.773,10.055a.775.775,0,0,1-.773.773H45.32a.775.775,0,0,1-.773-.773V49.32a.775.775,0,0,1,.773-.773H56.149a.775.775,0,0,1,.773.773Z" transform="translate(-10.514 -11.42)" fill="#7b7b7b"/>
          <path id="Path_11842" data-name="Path 11842" d="M23.431,30.09a11.74,11.74,0,0,0,1.547.114,11.6,11.6,0,1,0-7.892-3.094h-6.8a2.323,2.323,0,0,0-2.32,2.32v7.735a2.294,2.294,0,0,0,.142.773H3.32A2.323,2.323,0,0,0,1,40.259v7.735a2.323,2.323,0,0,0,2.32,2.32H14.149a2.305,2.305,0,0,0,1.547-.6,2.3,2.3,0,0,0,1.547.6H28.072a2.323,2.323,0,0,0,2.32-2.32V40.259a2.323,2.323,0,0,0-2.32-2.32H23.288a2.294,2.294,0,0,0,.142-.773ZM14.923,18.6a10.136,10.136,0,1,1,8.306,9.889A2.322,2.322,0,0,0,21.11,27.11H19.636A9.977,9.977,0,0,1,14.923,18.6Zm-.773,30.165H3.32a.775.775,0,0,1-.773-.773V40.259a.775.775,0,0,1,.773-.773H14.149a.775.775,0,0,1,.773.773v7.735A.775.775,0,0,1,14.149,48.768Zm14.7-8.508v7.735a.775.775,0,0,1-.773.773H17.243a.775.775,0,0,1-.773-.773V40.259a.775.775,0,0,1,.773-.773H28.072A.775.775,0,0,1,28.845,40.259Zm-11.6-2.32H10.282a.775.775,0,0,1-.773-.773V29.431a.775.775,0,0,1,.773-.773H21.11a.775.775,0,0,1,.773.773v7.735a.775.775,0,0,1-.773.773Z" transform="translate(-1 -2.359)" fill="#7b7b7b"/>
          <path id="Path_11843" data-name="Path 11843" d="M11,29h1.547v1.547H11Z" transform="translate(-3.265 -7.343)" fill="#7b7b7b"/>
          <path id="Path_11844" data-name="Path 11844" d="M12.547,17.243a14.7,14.7,0,0,1,29.392,0V31.35l-2.5-3-1.188.99,4.461,5.354,4.461-5.354-1.188-.99-2.5,3V17.243a16.243,16.243,0,0,0-32.486,0V21.11h1.547Z" transform="translate(-3.265 -1)" fill="#7b7b7b"/>
        </g>
      </g>
      <text id="_" data-name="$" transform="translate(24.246 21.052)" fill="#fff" font-size="14" font-family="ArialMT, Arial" letter-spacing="0.005em"><tspan x="-3.893" y="0">$</tspan></text>
    </g>
  </g>
</svg>
