<svg id="Group_2511" data-name="Group 2511" xmlns="http://www.w3.org/2000/svg" width="47.955" height="47.955" viewBox="0 0 47.955 47.955">
  <text id="_" data-name="$" transform="translate(13.76 40.052)" fill="#7b7b7b" font-size="16" font-family="ArialMT, Arial" letter-spacing="0.005em"><tspan x="-4.449" y="0">$</tspan></text>
  <g id="_111111" data-name="111111" transform="translate(0 0)">
    <g id="Group_2498" data-name="Group 2498" transform="translate(7.796 0)">
      <path id="Path_12059" data-name="Path 12059" d="M40.622,3.8l2.914,2.914L24.971,25.282A12.6,12.6,0,0,1,30.8,31.11L49.365,12.545l2.914,2.914L54.082,2Z" transform="translate(-13.922 -2)" fill="#8fdeea"/>
      <path id="Path_12060" data-name="Path 12060" d="M10.916,26.992a12.472,12.472,0,0,1,8.012-1.072L35.053,9.8,21.009,10.876l3.012,3.011Z" transform="translate(-10.916 -3.667)" fill="#8fdeea"/>
      <path id="Path_12061" data-name="Path 12061" d="M33.4,38.507a12.472,12.472,0,0,1-1.072,8.012L45.435,33.413l3.011,3.011,1.081-14.043Z" transform="translate(-15.495 -6.358)" fill="#8fdeea"/>
    </g>
    <path id="Path_12062" data-name="Path 12062" d="M14.365,29A13.365,13.365,0,1,0,27.729,42.365,13.38,13.38,0,0,0,14.365,29Zm0,22.012a8.648,8.648,0,1,1,8.648-8.648A8.658,8.658,0,0,1,14.365,51.012Zm6.641-16.4a10.164,10.164,0,0,0-5.854-2.428V30.612A11.728,11.728,0,0,1,22.117,33.5Zm-7.427-2.428a10.162,10.162,0,0,0-5.854,2.428L6.612,33.5a11.723,11.723,0,0,1,6.966-2.888ZM6.612,35.724a10.162,10.162,0,0,0-2.428,5.854H2.612A11.728,11.728,0,0,1,5.5,34.612ZM4.185,43.151a10.162,10.162,0,0,0,2.428,5.854L5.5,50.117a11.723,11.723,0,0,1-2.888-6.966Zm3.539,6.966a10.164,10.164,0,0,0,5.854,2.428v1.572a11.728,11.728,0,0,1-6.966-2.888Zm7.427,2.428a10.162,10.162,0,0,0,5.854-2.428l1.112,1.112a11.723,11.723,0,0,1-6.966,2.888Zm6.966-3.539a10.164,10.164,0,0,0,2.428-5.854h1.572a11.728,11.728,0,0,1-2.888,6.966Zm2.428-7.427a10.162,10.162,0,0,0-2.428-5.854l1.112-1.112a11.723,11.723,0,0,1,2.888,6.966Z" transform="translate(-1 -7.774)" fill="#7b7b7b"/>
    <path id="Path_12064" data-name="Path 12064" d="M0,0H2.223V1.572H0Z" transform="translate(23.81 23.029) rotate(-45)" fill="#7b7b7b"/>
    <path id="Path_12065" data-name="Path 12065" d="M0,0H13.342V1.572H0Z" transform="translate(26.169 20.671) rotate(-45)" fill="#7b7b7b"/>
    <path id="Path_12066" data-name="Path 12066" d="M0,0H13.342V1.572H0Z" transform="translate(28.525 39.537) rotate(-45)" fill="#7b7b7b"/>
    <path id="Path_12067" data-name="Path 12067" d="M0,0H2.223V1.572H0Z" transform="translate(26.166 41.895) rotate(-45)" fill="#7b7b7b"/>
  </g>
</svg>
