<svg xmlns="http://www.w3.org/2000/svg" width="32.291" height="31.917" viewBox="0 0 32.291 31.917">
  <g id="Group_2996" data-name="Group 2996" transform="translate(0.874 0.5)">
    <ellipse id="Oval-Copy-69_Copy_12" data-name="Oval-Copy-69 Copy 12" cx="15.459" cy="15.459" rx="15.459" ry="15.459" transform="translate(0)" fill="none" stroke="#908f91" stroke-miterlimit="10" stroke-width="1"/>
    <path id="Path_108_Copy_3" data-name="Path 108 Copy 3" d="M0,8.923c0-1.079.016-2.047,0-2.855C-.066,2.584,1.079,0,3.6,0S7.258,2.712,7.214,6.124c0,.2.012,1.784,0,1.879" transform="translate(13.515 21.947)" fill="none" stroke="#908f91" stroke-miterlimit="10" stroke-width="1"/>
    <path id="Path_108_Copy_4" data-name="Path 108 Copy 4" d="M0,.819A2.292,2.292,0,0,1,1.877,0C3.641,0,4.444,1.413,4.414,3.192c0,.105-.008,1.211-.017,1.26V6.471" transform="translate(0.96 20.5)" fill="none" stroke="#908f91" stroke-miterlimit="10" stroke-width="1"/>
    <path id="Path_111_Copy_2" data-name="Path 111 Copy 2" d="M7.666,3.469,0,0" transform="matrix(0.914, -0.407, 0.407, 0.914, 0, 14.999)" fill="none" stroke="#908f91" stroke-linecap="round" stroke-miterlimit="10" stroke-width="1"/>
    <path id="Path_111_Copy_8" data-name="Path 111 Copy 8" d="M0,.586,6.175,0" transform="matrix(-0.995, -0.105, 0.105, -0.995, 31.121, 17.091)" fill="none" stroke="#908f91" stroke-miterlimit="10" stroke-width="1"/>
    <path id="Path_111_Copy_9" data-name="Path 111 Copy 9" d="M0,.574,5.463,0" transform="matrix(-0.995, -0.105, 0.105, -0.995, 30.219, 20.033)" fill="none" stroke="#908f91" stroke-miterlimit="10" stroke-width="1"/>
    <path id="Path_112_Copy_2" data-name="Path 112 Copy 2" d="M0,4.646a.719.719,0,0,1,.434-.66L9.668,0l8.894,3.642a.719.719,0,0,1,.447.665V5.883a.719.719,0,0,1-.991.665L9.668,3.13,1,6.869a.719.719,0,0,1-1-.66Z" transform="translate(7.127 7.718)" fill="none" stroke="#908f91" stroke-miterlimit="10" stroke-width="1"/>
    <path id="Path_113_Copy_4" data-name="Path 113 Copy 4" d="M1.63,0V14.994" transform="translate(6.803 14.251)" fill="none" stroke="#908f91" stroke-miterlimit="10" stroke-width="1"/>
    <path id="Path_113_Copy_5" data-name="Path 113 Copy 5" d="M.413,0V13.6" transform="translate(24.374 14.251)" fill="none" stroke="#908f91" stroke-miterlimit="10" stroke-width="1"/>
  </g>
</svg>
